<mxfile host="Electron" agent="Mozilla/5.0 (Windows NT 10.0; Win64; x64) AppleWebKit/537.36 (KHTML, like Gecko) draw.io/27.0.9 Chrome/134.0.6998.205 Electron/35.4.0 Safari/537.36" version="27.0.9">
  <diagram name="Page-1" id="WjY0OEj0YuGvMSyv-oRw">
    <mxGraphModel dx="2403" dy="785" grid="1" gridSize="10" guides="1" tooltips="1" connect="1" arrows="1" fold="1" page="1" pageScale="1" pageWidth="1100" pageHeight="850" math="0" shadow="0">
      <root>
        <mxCell id="0" />
        <mxCell id="1" parent="0" />
        <mxCell id="lqA8_-Kd97wF1EIv1CP8-1" value="" style="shape=image;verticalLabelPosition=bottom;labelBackgroundColor=default;verticalAlign=top;aspect=fixed;imageAspect=0;image=data:image/png,iVBORw0KGgoAAAANSUhEUgAABgoAAALiCAIAAACHbRpvAAAABmJLR0QA/wD/AP+gvaeTAAAgAElEQVR4nOzdeVzU5f7//9cMm7ngGCpL4JLgXn5TEY8oiuKKgqUHDPSYHsNC08pMSnGNPuWxLJdK0tOxhGOeY7mcQJHTglaaubSo6A8zBRVUGlBBlmHevz+mxjnDgOzbPO43/3jPdV3v93W9vc3cnHl6XddbpdfrBQAAAAAAANZKXd8DAAAAAAAAQH0iHgIAAAAAALBqxEMAAAAAAABWjXgIAAAAAADAqhEPAQAAAAAAWDXiIQAAAAAAAKtGPAQAAAAAAGDViIcAAAAAAACsGvEQAAAAAACAVSMeAgAAAAAAsGrEQwAAAAAAAFaNeAgAAAAAAMCqEQ8BAAAAAABYNdv6HgAAAEDtSvYs8//DAtL0dTkSAACAhkml1/OtCAAA1J1H1+Qd+FF3ZZOj430qs6qAVbdPXCi5ssnxn18Xz3w331DYzE7atFT39rAZ94jtDH9707P+8WVRRZoJCREAAEC5WFwGAADq1Ixh9vmFyo5viszKL17Xf3FKFzbY3sHu92QnZkqzPS+2iJvXYukkh3aOqkVxd3ovuPXjxRKzEyvYrCzlJEcAAABWgu9DAACgTo17xM5Fo/7HV8Vm5Vu/KlIUmeFvbyz5U1fb8f3sHh1gN3ukw7Znmn/7Sqtbd5Tgv+UVFiumJ1akWflThEiIAACAlePLEAAAqFO2NjLNz/6bs7pzV+9O8FEU+SilqE9Hm76dbco68ZHONksnO1y8rv/3YfNoqQrNypLsqTb+qcLpAAAAjRHfewAAQF2b6W8nIltNJhClnNGdz9KbTh2yKKi/vYgcTL3HwjGLze45gcg0EhrVL7v8LgAAAJoS4iEAAFDXurnZ/Kmr7UcpRfo/ln9t/arI3lbCB98jHurYVi0iV7X32EzaYrPyZwMFpOkNf+41dgAAgCaIeAgAANSDGcPsMrL1B34sFpG8QuXfh4uDve2dWpk/y8yMUn51JZtZZAyJiIoAAID1IB4CAAD1IHSQfQsHlWF92b++Lb5doMwYZnfPsy5e14uI2/33+AJTutk9pw5VZMwAAABNFfEQAACoB63uU00eaLfru6KcPOUfXxa5O6lH9bl3PLT7aJGI+PUoc/vqSjUzIBsCAACwre8BAABqC9Ml0MDN8Lff+lXR/+0qPJiqe/nRZup7LCyTExdKXvmksHN79SSf8rYoKt2snM8CHwQAAAAhHgKA+vXomrwDP+qubHJ0vM/8l3HAqtsnLpRc2eToYKf68pRu9Z7CHy+WZN/Wt3NU93jAJqi/7ZzRDoaWZdUGpOnL+VWc7KnmhzHql18PWy9X9Zq9BSLyxDALic+353S3CxSdXrJy9AdTS/59uMhFo979Ygt728o1460OAABQPuIhAKhPM4bZ7z5avOObolkjHEzLL17Xf3FKFznKwcFO9fE3RWHr8vt2tnnpUQfn1qqMbOWbcyVbvyoyxEPl1wIN3BND7RdvLxja07aLs4Uoc/H2AhGxt5X7W6p7e9i8FnbfX4fbtyqVpVawWUXcTVT7ZRuOiZYAAIA1UOn1fOkBgHqjK5EOkTcfdFYfWtnStHzlvwuW/6vg+9da9e1sM+DlW5k5yrm3WzWzu/tzt7BYcbBTiUj5tVKZJWbGlvwehtUyfgpG9ctOOuYkfBwAAIB1YGtqAKhPtjYyzc/+m7O6c1dLjIWKIh+lFPXpaNO3s42IaG8rbm3UpumPiBjTn/JrpZI/bvklDAAAAFgh4iEAqGcz/e1ExPB4b4OUM7rzWfoZ/r9vxTK4u+13abrF2wvOXikpfXr5tQblhD7JnmrjHxFRh2qrfCMAAAAAGikWlwFA/fONvp2erf91o6PhyU0z382PP1R0+b3WTq1UInLjljJtff7+H4pF5P6WKr8eto8OsAsfYm9oXH6tQQUf25TsqTYsqGEOEaxW6Q8LHwcAAGANmD0EAPVvxjC7jGz9gR+LRSSvUPn34eJgb3tDNiQibVupEl9ucWZtq/Uz7xvfz+7w/1cyfWP+2FfzSvT3rpV77T1kyvAzmB/DQGXpdDpPT89FixYZXhYUFDz88MPz5883vFywYIG3t/fYsWMNL69evfqXv/zF19fX39//ww8/rJ8RAwAA/C+eXAYA9S90kP1zWwu2flU8uo/dv74tvl2gzBhmZ9amm5tNNzcbESnSyVPv5//jy6J/fVs0xde+/NqK70sNQEw+FJ6x6rSISnxAWrZseerUqeLiYjs7u88//7xDhw7GqpCQkOnTpxvDIxGZO3fugAEDsrOzg4KCBg0a5OnpWVPjBwAAqBpmDwFA/Wt1n2ryQLtd3xXl5Cn/+LLI3Uk9qo95PGRkbyvPjHEQkZ/TLfx2Na0lGwLqjEqlGjx4cEpKiogkJCSMGzfOWOXj49O6dWvjS1dX1wEDBoiIk5PTgw8+mJWVVfejBQAAMMPsIQBoEGb422/9quj/dhUeTNW9/Ggz052DTmeU9HS3MW187BediLRvrSq/lgAIqJDUVFV0tDg7S36+snmzqKv4n2fjx4//+9//PnDgwKtXrwYHB589e7b89hcuXLhw4cL/+3//r2rdAQAA1CDiIQBoEPx62Hq5qtfsLRCRJ4bZm1YFr85r3Vw1ycfOy1VdpJOj50s2HSh84H51+GD7e9YCuLfERCUoSKZNq+ZlevfunZaWtnfv3uHDh9+z8c2bN5955pmYmJgWLVpUs18AAIDqIx4CgIbiiaH2i7cXDO1p28X5fyYvvB5+366jxVu/Kr78m75Ip3Roq5453OHlRx0Me1eXXwvg3mbNUr3xhsyaJW3aKDExYl/RaLX0/kTDhg1bs2bNzp07z507V86JhYWFTz311PTp04cOHVr1YQMAANQc4iEAaCheerTZS482K13+mI/dYz5lbkVUfi2Ae2vVSlm+XERUixdLcrKYbBtUWSEhIe3bt+/YsWM58VBJScn8+fOHDBny5z//ucodAQAA1CziIQAAYN127VIlJYm9vaSny4IF5TS85+PM3N3dp06dalYYGRl54sSJ3377zdfXd/78+R4eHsnJyT/99NO2bdtEZNmyZaNGjar+TQAAAFSHSq9n41IAwO/UoVr9x23qexRA/bOYBHnG/r7w01B1z7QIAACgseDB9gAAoN7ExsaOGTNm+fLlpavu3LljmF9j0eHDh0eOHDls2LA333zTULJgwQJvb++xY8eW0118fPzo0aNHjx791FNP5eXlVXnYnrFqY1QEAADQBDB7CABwF7OHUMeGDh2akJBg8eldWq02LCwsMTGxdJWiKMOHD3/vvfe6dOkSEhKyZMmSvn37Hjly5L777lu0aJHFU0QkNzc3ICAgOTm5devWL7zwQq9evWbMmFHWwCqY/jB7CAAANA3sPQQAAOrC9evXH3/88UGDBuXk5JSUlPztb39bs2ZNVlZWREREaGhoUFBQYmLi+++/r9Ppunbt+uqrr65fvz4jIyM8PLx///7PPfec6aVOnz6t0Wi6desmIhMnTkxKSurbt6+Pj8/FixeNbVavXu3m5mbYCWjdunXNmzefPHmyoiiFhYUlJSWFhYXt27cvZ7QWcx/TzCgtQs8EIgAA0GTwtQYAANSRS5cuzZgxY926dQ8//PCWLVuWLl2q0Wji4uKCgoIyMjK2bdu2ffv2PXv2eHh4bN++/ZlnnnF3d4+LizPLhkQkKyvL2dnZcOzq6pqZmVm6r8DAwISEBMNxQkJCYGCgRqNZuHDhiBEjBg0aVFxcHBgYWLW7SIvQl7MtEQAAQGPEVxkAAFBHPDw8OnfuLCL+/v7ff/+9adWRI0cyMjJmzJgRHh6ekpJy7dq1cq6jKIrxuKxl8r169crOzs7Kyjpz5oxGo3F1dc3Pz9+5c+eBAwe+/vpre3v7+Pj4yo7fYjAEAADQBLC4DAAA1BGdTmc4KC4uNqtSFMXPz2/VqlXGEq1WW9Z1XFxcjDOGMjMzXVxcLDYbM2bMvn37bty4YZgodPToUUdHR0PjgICAgwcPhoWFVeNuAAAAmg5mDwEAgDpy+fJlw6ShXbt2eXt7m1b5+Pj897//vXTpkojcvHnz0qVLzZs3L+vhYj169MjNzU1NTdXpdLt37w4ICLDYbPz48f/5z3/27dtneJyZm5vb6dOntVqtoiiHDh3q1KlTzd4dAABA40U8BAAA6kjXrl0//fTT8ePHp6enz5w507TKw8Nj5cqVkZGRY8aMCQsLu3r1qoODw5AhQ8aOHRsTE2N2HbVaHRMTM2fOnGHDhv3pT3/q37+/iERGRk6ZMuWXX37x9fXdsWOHiHh5eeXl5bm5ubVt29bwcvr06ZMmTQoICLhz584TTzxRR7cNAADQ4PFgewDAXTzYHrXn+vXrM2fO3Lt3b30PpMZ4xqqNWxGZHgMAADQ6zB4CAAAAAACwamxNDQAA6kK7du2qNnUoJydnzpw5piUbN27UaDQ1NK4/JCerli2Tvn0lPV1Zv148PGr4+gaKolqyRK5fFwcHKSlR3npL7O1rpSMAAIDKIB4CAAANmkajiYuLq4OOlAkTJCpKNmyQ48drKx6Kj1c0GjHsplRSImrmcQMAgAaBLyUAAAAiIqrPPlPNm6f65BMZNKi2uvjpJxk4UERkwwZVaKicPVtLHQEAAFQKs4cAAABERJTAQImKkoMHVWvWKK+/XrWLeMbe/b+30ptVKw89JIcPy5AhMneuXL4st29XfbgAAAA1h3gIAABARES1d69cvixXrijz5lXhdEMwZBoJlS6RsDDV4sUSESEtWkhurri7V3fQAAAANYEH2wMARETUoVrjMc+2B4ySPdUiEpBm4fuS2YPtxdJ0oYo88N7QhSmL3QEAANQe9h4CAPxPNlT6JWCdkj3VpYObcliMgdIi9KbLzQAAABomFpcBACyo44SI+UqoDdV8GyfV1Dj+d0Oi0t4TEZFR/bLvFlkaOR8TAABQe4iHAAAW1OUPUSYrofZU+Z1cqXlD91T++rLk1WoRSTrmZCwpvbiMjwkAAKhVzHYGAAAwF5CmZwMgAABgPYiHAADmMyxYwwIYVCoksriCrCJbUwMAANQ7FpcBAET+iITUoVqyITQ6+/evPnx4a7du/lOmbCirzQcfTDt1ar+jo/PSpT9V9vqVSohKP9i+Bq8PAABQS4iHAABA45aS8m509I/NmrUqp42v7yx//3kffjiz9oZhCIZMIyHmDQEAgMaCeAgAADQaN29mvvGGf+/eY7Ozf9XpimbP/vcnn7yYk3PlnXeCBg9+csCAsLJO7Np16LVraXUwQiIhAADQGBEPAQCAxiQ7+8Lw4fOcnDp9/PH8kyd3hYauO3bsX88//4WhdtWqPgUFN/9oe3zx4s7h4Zt69hxVX6MFAABoFIiHAAAixsd498s2HLAZChqsdu08nZw6iYizc7fs7F/NaqOjfzAe/1+oNibmQh0ODQAAoLEiHgIAAI2JjY2d4UCtVuv1OrPaFSt637mT+8erH6OiPKZN29yr1+g6HCAAAEDjQzwEAACajmXLfjYerw7VvvZaej0OBgAAoLGo0PNWAQBWIumYU30PAagVmzZNWrPGLzPzbFSUx9dfb6nv4QAAADQszB4CAACNhqOjy5IlJwzHfn5PGQ5Wr756zxNnz95Zi8MCAABo5IiHAAAif+xF7Rmr5rHcAAAAgLVhcRkAAAAAAIBVIx4CAAAAAACwaiwuAwBYkpqqio4WZ2fJz1c2bxb13f9O+OCDaadO7Xd0dF669KcKXkyrTd+6dWZmZqqtrcOIEc/6+881axAX99TAgdO6dPE1vDx79ov4+Kd1uqIBA8KCg18xbVm69xdeaG9r6yAiDg4tVqxIrdrtosY1hPeJyFljSW2/T1iVCQAAGjXiIQCwFpXbVygxUQkKkmnTStf4+s7y95/34YczK9V7YGC0l5ffrVvXYmL6de8+3NW1p2nthQtHHn98o+FYUZSPPnry6ac/dXXtsXq1b+/e47p0GVRO72q1DQ8vb4AawvvkzUV3z63s+8QzlhnWAADAivDVBwBgyaxZqvPnVbNmqRYulKIi05quXYc2b96m9Bm//np01ao+xcUFhYV5y5f3vHLlZ2NVmzYeXl5+ItKqVXsXl245OVfMznV27qpW2xiOMzJOtmhx/wMPPKRW2/r4TD158tOK9I6GpsbfJ1evnqnj90lahL78P9W8PgAAQMPB7CEAgCWtWinLl4uIavFiSU6WcePueUanTt59+gTt2RNdVJTv4zPNza136TZZWeeyss517uxjVt6z52jjsVZ7WaN5wHDcpo3HL798W36/en3J0qVdbWzs/f2f8fObfc9xon5V+X1y6lQi7xMAAIBaQjwEAFbNsILGwjyIXbtUSUliby/p6bJgQQWvNm5c9GuvDbC1bRYauq50bX5+zvvvh4SHb2rWrJVZVa9eY0xeKXePlHtP0Hjppe+cnDrduHFh3boxbm69PD0HV3C0qC9Ve5+cPp30l7/83aSght4nycmqZcvE21u0WmXkSJk6tSq3BAAA0MgRDwEALIVEEycqEydW9jp5edkFBbft7IqLiwscHFqYVhUXF7z77kR//3m9e481LS8qyhcRjcbNWNKmjXtOTobhWKvNMM4QKYuTUycRadu2c58+QRcvfk881PBV7X2Sn59TS+8TZcIEiYoSEVVwsOLrK507V+v2AAAAGiH2HgIAK+IZqzb7Y1ZbzevHxc0OClrp7R326adRpuV6fcnmzVN69hzt62u+UfHZs1+Ylbi798nL+y0j48eSkuLvvovr0ydYRH74YY9OV1i6x/x87a1b10Tk1q1rP/+c+MADD1XzFlAHqvY+6dbN37SkNt4nSr9+ksrD7wAAgDVi9hAAWJHSi8hMI6EKbrW7adOk8+e/vX37RlSUx4QJy319/2oo/+abD2xs7AYMCNPrS1av9k1N/bx79+GGqnPnvvrhhz0XLx776qt3RCQ0dN0jjzxqqDp1ap/IINPrq1TqqVNjY2MnFxcXDBgQbpjl8Y9/TF+x4oyjo4tZ7w8++Kf33nussPC2jY39kCER3buPqMrfC2pBjb9P+vadZHr9irxPRE5V6n2iOn5csfS0vrKwOzUAAGgyVHo932wAoGkye5K9xQfbl7n3UF2JiekX/WOy/mMeRobyxMT0i4o6bGNjV6mz1KHae7+1jHsP5eQoAQHGvYcsfl7qUYXuBQAAoKqYPQQAVq3efwAvXnwsOlRbv2NAw7d48bHaunRAgBIQUFsXBwAAaCTYewgAAAAAAMCqMXsIAADgd8mev//P2XsiyavVIhKQ1oCWmAEAANQSZg8BAKpr//7VK1b02r59bjltPvhg2gsvtF+5kieLAQAAAA0O8RAAoLpSUt5dtOjwlCkbymnj6ztr7tzP6mxIQDWN6pdd30MAAACoOywuAwBUws2bmW+84d+799js7F91uqLZs//9yScv5uRceeedoMGDnxwwIKysE7t2HXrtWlpdDhUAAABABREPAQAqJzv7wvDh85ycOn388fyTJ3eFhq47duxfzz//haF21ao+BQU3TduHh2/q2XNUfYwUAAAAQIUQDwEAKqddO08np04i4uzcLTv7V7Pa6Ogf6n5IAAAAAKqDeAgAUDk2NnaGA7VardfrzGpXrOh9506uacm0aZt79RpdR4MDqufuc8pCtTyzDAAAWA/iIQBATVq27Of6HgIAAACAyuHJZQCAurBp06Q1a/wyM89GRXl8/fWW+h4OAAAAgLuYPQQAqARHR5clS04Yjv38njIcrF599Z4nzp69sxaHBQAAAKAaiIcAoMFJ9jSf2lk3e6AY+mW/FQAAAMDaEA8BACwEUgAAAACsB/EQANQndajWQmm/bONh0jEnEfGMra34xiwYGtUvWywOCQAAAEDTRTwEAPVM/3Ebs5LSc3nSIqqy4KsioZJhKZmxx6RjTiwuAwAAAKwNqwkAABKQpicVAgAAAKwWs4cAoMGxnNQoimrJErl+XRwcpKREeestsbevlX6Tk1XLlknfvpKerqxfLx4eNdsLAAAAgIaGeAgAGon4eEWjkZgYEZGSElHX4vRPZcIEiYqSDRvk+HHiIQAAAKDJY3EZADQOqp9+koEDRUQ2bFCFhsrZs7XY12efqebNU33yiQwaVHu9AAAAAGggiIcAoHFQHnpIDh8WEZk7V7y85PbtWuwrMFBZt05ZsUK1Zk3t9QIAAACggWBxGQA0EmFhqsWLJSJCWrSQ3Fxxd6+9rlR798rly3LlijJvXu31AjRM6lCt8aD0gwUBAACaJOIhAGgkVCrl1VfroqOAACUgoC46AhoeYzZkfElCBAAArAGLywAAAAAAAKwas4cAAECTZTYbCAAAABYRDwEAqiU2NvaTTz4ZOHDg8uXLzaru3Lmzc+fOqVOnWjzx8OHD0dHRxcXFQUFBzz//vIgsWLAgJSWlbdu2iYmJZXUXHx+/detWEencufMbb7zRokWLGrsTNDlVWBdGnAQAAKwTi8sAANUSFxe3c+fO0tmQiBQUFMTFxVk8S1GUl156acOGDcnJyYcOHTp+/LiIhISEbNmypZy+cnNz165du2PHjv3797ds2XLHjh01cQfAXWaJEhsPAQAAK0E8BACoqOvXr48aNSomJubpp5+eNWtWYWHhypUrs7KyIiIi9uzZIyKJiYmPPfZYUFDQCy+8UFRUtH79+oyMjPDw8LVr15pd6vTp0xqNplu3bra2thMnTkxKShIRHx+f1q1bG9usXr1627ZthuN169Zt3rxZURRFUQoLC0tKSgoLC9u3b19Xtw4rov+4jSEVIhsCAADWg3gIAFAJ6enp06dPf/fddzt06HDgwIGlS5dqNJq4uLigoKCMjIxt27Zt3759z549Hh4e27dvf+aZZ9zd3ePi4p577jmz62RlZTk7OxuOXV1dMzMzS/cVGBiYkJBgOE5ISAgMDNRoNAsXLhwxYsSgQYOKi4sDAwNr9WYBAAAAK0E8BABNVlqEvsav2bFjR3d3dxF58MEHMzIyTKuOHDmSkZExY8aM8PDwlJSUa9eulXMdRVGMx3q95XH26tUrOzs7KyvrzJkzGo3G1dU1Pz9/586dBw4c+Prrr+3t7ePj42vingAAAABrx9bUAIBKsLOzMxyo1WqdTmdapSiKn5/fqlWrjCVabZm7/Lq4uBhnDGVmZrq4uFhsNmbMmH379t24ccMwUejo0aOOjo6GxgEBAQcPHgwLC6veDQEAAAAgHgIAa+IZe+9Jo1Wec+Tj4/Pmm28++eSTHTp0uHnzZk5OjrOzc15ensXGPXr0yM3NTU1N9fT03L1798svv2yx2fjx419++eWcnJx//vOfIuLm5nb69GmtVqvRaA4dOtSpU6eqDRUAAACAKeIhALAi94x+KpIflcXDw2PlypWRkZE6nc7W1jY6OrpDhw5DhgwZO3bs4MGDFy9ebNpYrVbHxMTMmTOnsLAwODi4f//+IhIZGXnixInffvvN19d3/vz5ISEhXl5eeXl5bm5ubdu2FREvL6/p06dPmjRJpVL17NnziSeeqPJoAQAAABipytrxAQBQB9Sh2oo8HUmn03Xv3n3SpEmvv/66iBQUFAwYMMDf3//tt98WkQULFqSkpLRt2zYxMVFE9Hr95MmTs7OzFUUZN27cokWLVCqViHjGqisSD/3eJjlZtWyZeHuLVquMHClTp1b7XoHGpIKfzTrT0MYDAACaGLamBoDGoWXLlqdOnSouLhaRzz//vEOHDsaqkJCQLVu2GF+q1epNmzZ99dVXBw4cOHbs2MGDB6vWozJhgvLWW8rWrap//UsuXKjm+AEAAAA0WCwuA4DGQaVSDR48OCUlZcSIEQkJCePGjTt79qyhysfH5+LFi6aN27VrJyJ6vd70AWFVpvTrJ6mp0rlzla+Qk5MzZ84c05KNGzdqNJpqDw0AAABADSAeAoBGY/z48X//+98HDhx49erV4OBgYzxk0ZgxY9LT0ydOnDhkyJBq9qs6flyZNq06V9BoNHFxcdUcBgAAAIBaQjwEAI1G796909LS9u7dO3z48Hs23rdv382bNyMjI0+ePPnII49I5R9Jptq7VzIzJSdHmTy5OlOHAAAAADRwxEMA0JgMGzZszZo1O3fuPHfu3D0bOzo6Dhky5MsvvzTEQ5UTEKAEBFRliAAAAAAaG7amBoDGJCQk5Nlnn+3YsWM5bbKzsy9fviwiN2/eTE5OfvDBB+tqdAAAAAAaJWYPAUBj4u7uPrXUM+YjIyNPnDjx22+/+fr6zp8/39vbe+7cuVqt1tbWNjg4OCgoqCJXTvZUi8h7Ismr1SISkFa5lWhA02D4IIiI9Ms2HPNZAAAA1oB4CAAaAVtb2xMnTpiWjBw5cuTIkYbjd955x6z9Z599VkcjAwAAAND4sbgMAAAAAADAqhEPAQDuGtUvu76HAAAAAKCuEQ8BAACYSzrmVN9DAAAAqDvEQwAAANWi0+k8PT0XLVpkeFlQUPDwww/Pnz/f8HLBggXe3t5jx441tj98+PDIkSOHDRv25ptv1sNwAQAASiEeAgCIiASk6Q1PaDIeAFbI8P4PSNM/9WLlPgstW7Y8depUcXGxiHz++ecdOnQwVoWEhGzZssX4UlGUl156acOGDcnJyYcOHTp+/HjN3gIAAEAVEA8BAABUl0qlGjx4cEpKiogkJCSMGzfOWOXj49O6dWvjy9OnT2s0mm7dutna2k6cODEpKakehgsAAPC/iIcAAIB1S01V/fnPqrlzVTNnir7qU+fGjx//2Wef5eXlXb161cvLq6xmWVlZzs7OhmNXV9fMzMwq9wgAAFBTbOt7AAAAAPUqMVEJCpJp06p5md69e6elpe3du3f48OHlNFMUxXisr0YaBQAAUIOYPQQAEBFRh2rVoVrDQX2PBahbs2apzp9XzZqlWrhQiooqfp5nrPn3qGHDhq1Zs2b8+PHlnOXi4mKcMZSZmeni4lLZ8QIAANQ44iEAgHkkREIE69KqlbJ8uTTtAGwAACAASURBVLJ5s9jbS3Jyda4UEhLy7LPPduzYsZw2PXr0yM3NTU1N1el0u3fvDggIqE6PAAAANYLFZQAAC+o4IdJ/3KYuuwP+x65dqqQksbeX9HRZsKCchp6x6rSI8paDubu7T5061awwMjLyxIkTv/32m6+v7/z580NCQmJiYubMmVNYWBgcHNy/f/8auAUAAIDqUbHoHQDqkTpU2xCSkdJhUF2OqoH8JQCmLCZBxtVkhqp7pkU1iI8JAACoVSwuAwAA9SY2NnbMmDHLly8vXXXnzp1t27aVdeLhw4dHjhw5bNiwN99801CyYMECb2/vsWPHltNdfHz86NGjR48e/dRTT+Xl5VV52J6x6tIbDwEAADRefLMBAJjPFWKSAupMXFzczp07LcZDBQUFcXFxFs9SFOWll17asGFDcnLyoUOHjh8/LiIhISFbtmwpp6/c3Ny1a9fu2LFj//79LVu23LFjR/ljM2RApn8qelcAAACNDXsPAQBE/oiEWMCC2nP9+vXHH3980KBBOTk5JSUlf/vb39asWZOVlRUREREaGhoUFJSYmPj+++/rdLquXbu++uqr69evz8jICA8P79+//3PPPWd6qdOnT2s0mm7duonIxIkTk5KS+vbt6+Pjc/HiRWOb1atXu7m5GXYCWrduXfPmzSdPnqwoSmFhYUlJSWFhYfv27csZrcVVY6YJUVqEnsAIAAA0GXytAQAAdeTSpUszZsxYt27dww8/vGXLlqVLl2o0mri4uKCgoIyMjG3btm3fvn3Pnj0eHh7bt29/5pln3N3d4+LizLIhEcnKynJ2djYcu7q6Gp8TbyowMDAhIcFwnJCQEBgYqNFoFi5cOGLEiEGDBhUXFwcGBlbtLtIi9OVsSwQAANAY8VUGAADUEQ8Pj86dO4uIv7//999/b1p15MiRjIyMGTNmhIeHp6SkXLt2rZzrKIpiPC7rIRu9evXKzs7Oyso6c+aMRqNxdXXNz8/fuXPngQMHvv76a3t7+/j4+MqO32IwBAAA0ASwuAwAANQRnU5nOCguLjarUhTFz89v1apVxhKt1vyBekYuLi7GGUOZmZkuLi4Wm40ZM2bfvn03btwwTBQ6evSoo6OjoXFAQMDBgwfDwsKqcTcAAABNB7OHAAAiIsme6mRPtekBUOMuX75smDS0a9cub29v0yofH5///ve/ly5dEpGbN29eunSpefPmZT1crEePHrm5uampqTqdbvfu3QEBARabjR8//j//+c++ffsMjzNzc3M7ffq0VqtVFOXQoUOdOnWq2bsDAABovPgBAAAA6kjXrl0//fTT8ePHp6enz5w507TKw8Nj5cqVkZGRY8aMCQsLu3r1qoODw5AhQ8aOHRsTE2N2HbVaHRMTM2fOnGHDhv3pT3/q37+/iERGRk6ZMuWXX37x9fU1PJXMy8srLy/Pzc2tbdu2hpfTp0+fNGlSQEDAnTt3nnjiiTq6bQAAgAZPVdaKfQBAHWg4TwozzBga1S876ZiTiASk1d2/Dg3nLwG16vr16zNnzty7d299D6TGeMaqjVsRmR7XBj4mAACgVjF7CABwlyEbAgAAAGBV2JoaAADUhXbt2lVt6lBOTs6cOXNMSzZu3KjRaGpoXH9ITlYtWyZ9+0p6urJ+vXh41PD1DRRFtWSJXL8uDg5SUqK89ZbY29dKRwAAAJVBPAQAEPljNVltL5ABqkCj0cTFxdVBR8qECRIVJRs2yPHjtRUPxccrGo0YdlMqKRE187gBAECDwJcSAAAAERHVZ5+p5s1TffKJDBpUW1389JMMHCgismGDKjRUzp6tpY4AAAAqhdlDAAAAIiJKYKBERcnBg6o1a5TXX6/aRTxj7/7fW+m5eMpDD8nhwzJkiMydK5cvy+3bVR+uiPyxqXxZ6nKPeQAA0KgRDwEALElNVUVHi7Oz5OcrmzebLoH54INpp07td3R0Xrr0pwpeTKtN37p1ZmZmqq2tw4gRz/r7zzVrEBf31MCB07p08TW8PHv2i/j4p3W6ogEDwoKDXzFtWbr3F15ob2vrICIODi1WrEit2u0CIqLau1cuX5YrV5R586pwuiEYMo2ESpdIWJhq8WKJiJAWLSQ3V9zdqzPgamZDb31W+PyHd/K3tW5mpxKRFf8ueGVnQfE/a3pTJwAA0BgQDwGAtajcvkKJiUpQkEybVrrG13eWv/+8Dz+cWaneAwOjvbz8bt26FhPTr3v34a6uPU1rL1w48vjjGw3HiqJ89NGTTz/9qatrj9WrfXv3Htely92VPqV7V6ttXnstvVKDASwICFACAizWJHuqKzgNx+wjlhahN51MJCKiUimvvlr6+uZjYdYPAACoW+w9BACwZNYs1fnzqlmzVAsXSlGRaU3XrkObN29T+oxffz26alWf4uKCwsK85ct7Xrnys7GqTRsPLy8/EWnVqr2LS7ecnCtm5zo7d1WrbQzHGRknW7S4/4EHHlKrbX18pp48+WlFegdqQ7KnuvwZOqYsxq8WEqIqDUNKpUgsKwMAADWIeAgAYEmrVsry5crmzWJvL8nJFTmjUyfvPn2C9uyJ/uSTF318prm59S7dJivrXFbWuc6dfczKe/YcbTzWai9rNA8Yjtu08cjJuVx+v3p9ydKlXVes6J2Ssqki4wQqqOLBUENjlg2du1oSvi7fNeJms/CcjpE3Z7yTX1xy74scStW1/Wtu0Oq8/EKltgYKAAAaDBaXAYBVs7A3isGuXaqkJLG3l/R0WbCgglcbNy76tdcG2No2Cw1dV7o2Pz/n/fdDwsM3NWvWyqyqV68xJq/u/hZVlHvPgHjppe+cnDrduHFh3boxbm69PD0HV3C0aBrUodpaunJSzV2q/AlE74mIyKh+2XeLzG7qj6qKJFZm2dDP6SWDo2/f31K1/M8OXq42V7X63d/rinWKnY2qnIvs+LZo+sb8mf4O62bcZ9NYUzIAAFAJxEMAAEsh0cSJysSJlb1OXl52QcFtO7vi4uICB4cWplXFxQXvvjvR339e795jTcuLivJFRKNxM5a0aeOek5NhONZqM4wzicri5NRJRNq27dynT9DFi98TD1kh/ce1st4w2bPGLlX+tl/Jq9UiknTMyVhiFvEYUyHT8rKiIrOdkl7cVqBSyeGYlu1b/94+fIh9+aN9Y29BVHzBK1OaLQpuVn5LAADQZPD/QQBgRTxj1WZ/zGqref24uNlBQSu9vcM+/TTKtFyvL9m8eUrPnqN9fc03tD579guzEnf3Pnl5v2Vk/FhSUvzdd3F9+gSLyA8/7NHpCkv3mJ+vvXXrmojcunXt558TH3jgoWreAmAUkKav1A4+Fj9BldsSvtyRVHwwxuSouEQ+/7l48kB7YzZ0T/M+uLPk44KP5jYnGwIAwKowewgArEjpn6mmP2gr+CN206ZJ589/e/v2jagojwkTlvv6/tVQ/s03H9jY2A0YEKbXl6xe7Zua+nn37sMNVefOffXDD3suXjz21VfviEho6LpHHnnUUHXq1D6RQabXV6nUU6fGxsZOLi4uGDAg3DAb6B//mL5ixRlHRxez3h988E/vvfdYYeFtGxv7IUMiuncfUZW/FzRy+/evPnx4a7du/lOmbCirzQcfTDt1ar+jo/PSpT9V6uKVTYhKP9i+ZrswPauctWaGOUQ385Uinbg7lbeOzJRekfhDRT0esBnX164KQwIAAI0X8RAANFkVn7ZQqdkNs2fvtFg+aNCMQYNmiIhabRMVddi0qnv34e+9Z7mL8+e/KV3YvfuIlSvPmZasXastq/cVK1IrNnA0WSkp70ZH/1h6TytTvr6z/P3nffih+fy1GmT4HFUhcq2yeyZEQ8/q7W0l/UZFh6FWyRfLWo56JW/kqrx9i1u0aVHRXAkAADR2xEMAYNVq++frPS1efCy61rYWRtNz82bmG2/49+49Njv7V52uaPbsf4tITs6Vd94JGjz4yQEDwso6sWvXodeupdXBCOv4M3XPmUcBD9n9+3BxzON654qtL3uog81XK1oErMobvuJ20pKW7RxJiAAAsArEQwAAoDHJzr4wfPg8J6dOH388/+TJXSKjW7S4//nnf9/EatWqPgUFN03bh4dv6tlzVH2MtEH427Rmg5bc9nn59otBDl6u6qxcZffR4q1zmjd3KDP36epqk7KiZcCq28OW306ObuHahq0qAQBo+oiHAABAY9KunafhcXXOzt2ys381q42O/qHuh9SQ9XjA5sirLZftKFz2r4JbdxQXjXrEQ7Z2tveYE9SpnTplRcuAVXlDl99Ojm7ZoS0JEQAATRzxEACgump1Y2DAjI3N77smq9VqvV5nVrtiRe87d3JNS6ZN29yr1+g6GlyD1NXV5p/zm5cufzbQ4dlAB+PLZZObLZt892llbm3Up98sbzsnAADQlBAPAQCqq4FsDAyIyLJlP9f3EAAAABof4iEAQCWU3hj4k09ebFAbAwMWbdo06fz5b2/fvhEV5TFhwnJf37/W94gAAAAaEOIhAEDlmG0MHBq67tixf7ExMOqGo6PLkiUnDMd+fk+JiGzVrl599Z4nzp69s1YHBgAA0KgRDwEAKoeNgQEAAIAmhngIAFA5bAwMAAAANDHEQwCAmsTGwAAAAECjQzwEAKgLbAxsbT74YNqpU/sdHZ2XLv2pgqdotelbt87MzEy1tXUYMeJZf/+5Zg3i4p4aOHBaly6+hpdnz34RH/+0yLe7dy8JDn6l/N5feKG9ra2DiDg4tFixIrVa92ZJWoS+xq8JAABQZ4iHAKB+qEO1xgP9x21Mq5I91WaNA9Lq6Jdnsqe6/L4sbAwswsbAKM3Xd5a//7wPP5xZqbMCA6O9vPxu3boWE9Ove/fhrq49TWsvXDjy+OMbDceKonz00ZNPP/3pquflzJkDvXuP69JlUDm9q9U2r72WXvGReMaafwwBAACaMOIhAKgHxmzI+NIsIap7pTMpoDq6dh167Vpa6fJffz360UezoqKO6PUl//d/3hERO9zcehuq2rTxaNPGQ0RatWrv4tItJ+eKaTx09eoZZ+euarWN4WVGxskWLe5/4IGHRLQ+PlNPnvzUNB4qq/dKueeEICIkAADQZBAPAYC1IxhCXerUybtPn6A9e6KLivJ9fKYZsyFTWVnnsrLOde7sY1p46lRiz5539zjXai9rNA8Yjtu08fjll2/L71evL1m6tKuNjb2//zN+frOrfR8AAABNCvEQADQI/zOfqF+28TDpmJPU5iQFs2xoVL9s+d+ZTUCNGzcu+rXXBtjaNgsNXVe6Nj8/5/33Q8LDNzVr1sq0/PTppL/85e8mBcrdI+Xeqy9feuk7J6dON25cWLdujJtbL0/Pwb9XJCerli0Tb2/RapWRI2Xq1KrcEgAAQCNHPAQADYLp4rLS03mqtuttRUIlw05Dxh6TjjnV2T5HsFp5edkFBbft7IqLiwscHFqYVhUXF7z77kR//3m9e481LS8qys/Pz9Fo3Iwlbdq45+RkGI612gzjTKKyODl1EpG2bTv36RN08eL3d+MhEWXCBImKEhFVcLDi6yudO1fr9gAAABohFhQAQD0w22mo3jceCkjTkwqhzsTFzQ4KWuntHfbpp1Gm5Xp9yebNU3r2HO3ra76h9dmzX3Tr5m9a4u7eJy/vt4yMH0Xku+/i+vQJFpEfftij0xWW7jE/X3vr1jURuXXr2s8/Jz7wwEMWB6b06yepNf9QMwAAgIaP2UMAUD8MkZDFTaktJzWKolqyRK5fFwcHKSlR3npL7O1rdki/92tYa9O3r6SnK+vXi4dHzfYCK7Fp06Tz57+9fftGVJTHhAnLfX3/aij/5psPbGzsBgwI0+tLVq/2TU39vHv34Yaqc+e++uGHPRcvHvvqq3dEJDR03SOPPGqoOnVqX9++k0yvr1Kpp06NjY2dLHKkW7fhhtlA//jH9BUrzjg6upj1/uCDf3rvvccKC2/b2NgPGRLRvfsIi2NWHT+uTJtW8XvkYfYAAKDJUOn1fLMBgHpTiWeWxcXJlSuycKGISEmJqNWiUpV/hmes2vTnq9nLMiUny/ffS1SUbNggHh4SHFyh4QG1KSamX1TUYRsbu9JV1X3wn3HvoZwcJSDAuPdQRT8vAAAATQKzhwCgcVD99JMSGCgismGD6ssvlVdeke7da6uvzz6TK1fk55+Vjz+upS6ASlm8+FhtXTogQAkIqK2LAwAANBLsPQQAjYPy0ENy+LCIyNy54uUlt2/XYl+Bgcq6dcqKFao1a2qvFwAAAAANBLOHAKCRCAtTLV4sERHSooXk5oq7e+11pdq7Vy5flitXlHnzaq8XoAEyPsXvPZHk1Wopay8wAACApoV4CAAaCZVKefXVuuiItTYAAACAlWFxGQAAgLlR/bLrewgAAAB1h3gIAAAAAADAqhEPAQCqJTY2dsyYMcuXLy9ddefOnW3btpV14uHDh0eOHDls2LA333zTULJgwQJvb++xY8eW0118fPzo0aNHjx791FNP5eXlVW/sAAAAAESIhwAA1RQXF7dz506L8VBBQUFcXJzFsxRFeemllzZs2JCcnHzo0KHjx4+LSEhIyJYtW8rpKzc3d+3atTt27Ni/f3/Lli137NhRE3cAAAAAWDviIQBARV2/fn3UqFExMTFPP/30rFmzCgsLV65cmZWVFRERsWfPHhFJTEx87LHHgoKCXnjhhaKiovXr12dkZISHh69du9bsUqdPn9ZoNN26dbO1tZ04cWJSUpKI+Pj4tG7d2thm9erVxslH69at27x5s6IoiqIUFhaWlJQUFha2b9++rm4d1iIgTW/4Yzyu7xEBAADUBeIhAEAlpKenT58+/d133+3QocOBAweWLl2q0Wji4uKCgoIyMjK2bdu2ffv2PXv2eHh4bN++/ZlnnnF3d4+Li3vuuefMrpOVleXs7Gw4dnV1zczMLN1XYGBgQkKC4TghISEwMFCj0SxcuHDEiBGDBg0qLi4ODAys1ZsFAAAArATxEAA0WWkRNT/xoWPHju7u7iLy4IMPZmRkmFYdOXIkIyNjxowZ4eHhKSkp165dK+c6iqIYj/V6y+Ps1atXdnZ2VlbWmTNnNBqNq6trfn7+zp07Dxw48PXXX9vb28fHx9fEPQEAAADWzra+BwAAaEzs7OwMB2q1WqfTmVYpiuLn57dq1SpjiVarLes6Li4uxhlDmZmZLi4uFpuNGTNm3759N27cMEwUOnr0qKOjo6FxQEDAwYMHw8LCqndDgDl1qNZ4oP+4Tf0OBgAAoG4QDwGAFfGMvfek0SrPOfLx8XnzzTeffPLJDh063Lx5Mycnx9nZuayHi/Xo0SM3Nzc1NdXT03P37t0vv/yyxWbjx49/+eWXc3Jy/vnPf4qIm5vb6dOntVqtRqM5dOhQp06dqjZUoCzGbMj4koQIAABYA+IhALAi94x+KpIflcXDw2PlypWRkZE6nc7W1jY6OrpDhw5DhgwZO3bs4MGDFy9ebNpYrVbHxMTMmTOnsLAwODi4f//+IhIZGXnixInffvvN19d3/vz5ISEhXl5eeXl5bm5ubdu2FREvL6/p06dPmjRJpVL17NnziSeeqPJoAQAAABipytrxAQBQByo4N0Gn03Xv3n3SpEmvv/66iBQUFAwYMMDf3//tt98WkQULFqSkpLRt2zYxMdHQvnSJiHjGqisSD/3eJjlZtWyZeHuLVquMHClTp1b1FoHaZTbfp8YxewgAAFgDZg8BQOPQsmXLU6dOFRcX29nZff755x06dDBWhYSETJ8+fdGiReWUVIEyYYJERYmIKjhY8fWVzp2rczWgltRsfFPbYRMAAEDDRDwEAI2DSqUaPHhwSkrKiBEjEhISxo0bd/bsWUOVj4/PxYsXTRuXLqkOpV8/SU2tTjyUk5MzZ84c05KNGzdqNJpqDw2oYfqP25gmREwdAgAAVoJ4CAAajfHjx//9738fOHDg1atXg4ODjfFQBVV5z2nV8ePKtGlVO9dAo9HExcVV5wpAnTFEQmxKDQAArArxEAA0Gr17905LS9u7d+/w4cProDvV3r2SmSk5OcrkyawsAwAAAJow4iEAaEyGDRu2Zs2anTt3njt3rnZ7CghQAgJqtwsAAAAADQPxEAA0JiEhIe3bt+/YsWOtx0MAAAAArIa6vgcAAKgEd3f3qaWeMR8ZGTllypRffvnF19d3x44dFkvuKdlTneypfm/17wc1P3QAAAAADZVKr6/iTqUAgOprONvfmkVCAWn86wCr1nA+mwAAAHWA/x8GAAAAAACwasRDAIC7RvXLru8hAAAAAKhrxEMAAAAAAABWjXgIAAAAAADAqvFgewCAiHEv6lAtm1IDAAAA1obZQwAANEo7duyo7yEAAACgiSAeAgCgUXr77bfrewgAAABoIlhcBgBAQzd27NjShTdu3Kj7kQAAAKBJIh4CAKChu3HjxpYtW1q3bm1aOGXKlPoaTxOW7PnHxOp+2YZjduMCAADWgHgIAICGzs/P786dOw8//LBp4SOPPFJf4wEAAEATQzwEAEBD98Ybb5QufOeddwwHOTk5Go2mbkcEAACAJoWtqQEAaNzmzJlT30NogpKOOdX3EAAAAOoO8RAAAAAAAIBVIx4CAACoFp1O5+npuWjRIsPLgoKChx9+eP78+SKi1+sfe+yxoUOH+vn5vfbaa4qi1OtIAQAALGPvIQAAgN8Zn1PmGatOi6jEM8tatmx56tSp4uJiOzu7zz//vEOHDoZytVq9adOmdu3aFRYWTp069eDBg35+fjU/bgAAgOph9hAAAEB1qVSqwYMHp6SkiEhCQsK4ceOMVe3atRMRvV7P1CEAANBgEQ8BANDQKYqSkpKSkpKiKMqJEyfWrl27e/duY9awcePG+h1eo5eaqvrzn1Vz56pmzhR9JWYMmRk/fvxnn32Wl5d39epVLy8v06oxY8b079+/W7duQ4YMqfZwAQAAah6LywAAIiLqUK3xQP9xm/odDMzExMT8+OOPer1+//79ly5dGjx48LZt286fP//888+LCE+1r67ERCUoSKZNq+x5ZgvQevfunZaWtnfv3uHDh5u13Ldv382bNyMjI0+ePPnII49Ud8AAAAA1jdlDAIC72ZDFl6h3SUlJcXFxH3744a5du955553Zs2dv2bJl9+7d9T2upmLWLNX586pZs1QLF0pRUXWuNGzYsDVr1owfP750laOj45AhQ7788svqXB8AAKCWEA8BANDQqdVqOzu75s2be3h4tGrVSkQcHR11Ol19j6upaNVKWb5c2bxZ7O0lObk6VwoJCXn22Wc7duxoLMnOzr58+bKI3Lx5Mzk5+cEHH6zuaAEAAGoBi8sAABbU8QQilrOV7/7778/OznZyctq3b5+h5PLly05OTvU7qqZj1y5VUpLY20t6uixYUE5Dz1i1iJTzRDN3d/epU6ealty8eXPu3LlardbW1jY4ODgoKKimRg0AAFCDVPpqbMEIAKimBrLRT+kwqC5H1UD+EhoyvV6vVv/PhN8bN27cunWrc+fO9TWkmhIbG/vJJ58MHDhw+fLlZlV37tzZuXOnWdpidPjw4ejo6OLi4qCgIMMeTAsWLEhJSWnbtm1iYmJZ3cXHx2/dulVEOnfu/MYbb7Ro0aKslhYfbG+IhwzSIvQW2wAAADRGxEMAUJ8aTjJimhDV8ZAazl8C6t7QoUMTEhIsxjRarTYsLMxi1qMoyvDhw997770uXbqEhIQsWbKkb9++R44cue+++xYtWlRWPJSbmxsQEJCcnNy6desXXnihV69eM2bMKGtgpklQOYiHAABA08DiMgCAyB+REElNQ/btt99u2LAhIyPDuOvQ119/Xb9DqpTr168//vjjgwYNysnJKSkp+dvf/rZmzZqsrKyIiIjQ0NCgoKDExMT3339fp9N17dr11VdfXb9+fUZGRnh4eP/+/Z977jnTS50+fVqj0XTr1k1EJk6cmJSU1LdvXx8fn4sXLxrbrF692s3NzTD5aN26dc2bN588ebKiKIWFhSUlJYWFhe3bty9ntBZznwpmRgAAAI0O8RAAAI3Dyy+/vHbt2l69eqlUqvoeSxVdunTp/fff79y586ZNm7Zs2bJ06dKEhIS4uDgRycjI2LZt2/bt2+3t7d9+++3t27c/88wz3377raHWTFZWlrOzs+HY1dX1+PHjpdsEBgbGxMQY4qGEhIQPPvhAo9EsXLhwxIgRzZs3f+SRRwIDA6t8I4bwiLQIAAA0GXytAQCgcWjTps3DDz9sZ2dn+4f6HlGleXh4GPZL8vf3//77702rjhw5kpGRMWPGjPDw8JSUlGvXrpVzHUVRjMdlLZPv1atXdnZ2VlbWmTNnNBqNq6trfn7+zp07Dxw48PXXX9vb28fHx1fhFtIi9EwsAgAATU/j+2YJAIB1evHFF5977jlfX197e3tDycSJE+t3SJVlXBZXXFxsVqUoip+f36pVq4wlWm2Zj89zcXHJzMw0HGdmZrq4uFhsNmbMmH379t24ccMwUejo0aOOjo6GxgEBAQcPHgwLC6vU+NlpCAAANFX8TxcAQEQk2VOd7Kk2PUBDExcXl52dnZaWlvqH+h5RpV2+fNkwaWjXrl3e3t6mVT4+Pv/9738vXbokIjdv3rx06VLz5s3z8vIsXqdHjx65ubmpqak6nW737t0BAQEWm40fP/4///nPvn37xo4dKyJubm6nT5/WarWKohw6dKhTp041e3cAAACNF7OHAABoHM6dO7dv377Gu/GQiHTt2vXTTz9dvny5u7u72W7THh4eK1eujIyM1Ol0tra20dHRHTp0GDJkyNixYwcPHrx48WLTxmq1OiYmZs6cOYWFhcHBwf379xeRyMjIEydO/Pbbb76+vvPnzw8JCfHy8srLy3Nzc2vbtq2IeHl5TZ8+fdKkSSqVqmfPnk888UQd3joAAECDxoPtAaA+NZwnhRlmDI3ql510zElEAtLq7l+HhvOX0MBFRUVNnz69z3MCSwAAIABJREFUR48e9T2QKrp+/frMmTP37t1b3wOpMZ6xauNyM9NjAACARofZQwAANA4//PDDxIkTO3XqZNx7qClFLQAAAKhHxEMAgLsMU4fQMH344YcWy3NycjQaTR0PpgratWtXtTwrJydnzpw5piUbN25sFLcMAADQWBAPAQDQOLRr185i+Zw5c+Li4up4MHVJo9HUxQ0mJ6uWLZO+fSU9XVm/Xjw8aqUXRVEtWSLXr4uDg5SUKG+9JX/MBQMAAKhHxEMAAJE/Nhti/xRYM2XCBImKkg0b5Pjx2oqH4uMVjUZiYkRESkpEzVMCAQBAg0A8BAAAICKi+uwzuXJFfv5Z+fjjKl/EM/Zu4lM6bFX99JMSGCgismGD6ssvlVdeke7dq9wXAABATSEeAgBYkpqqio4WZ2fJz1c2b2aOA6yBEhgoUVFy8KBqzRrl9dcre7ohGDKNhEqXKA89JIcPy5AhMneuXL4st2/XxMABAACqi3gIAGBJYqISFCTTppWu+eCDaadO7Xd0dF669KcKXkyrTd+6dWZmZqqtrcOIEc/6+881axAX99TAgdO6dPE1vDx79ov4+Kd1uqIBA8KCg18pv/cXXmhva+sgIg4OLVasSK3UXQKmVHv3yuXLcuWKMm9e1a5gNl0oLUJvOplIRCQsTLV4sURESIsWkpsr7u5VHi0AAEANIh4CAGtRuX2FZs1SvfGGzJolbdooMTGmu+f6+s7y95/34YczK9V7YGC0l5ffrVvXYmL6de8+3NW1p2nthQtHHn98o+FYUZSPPnry6ac/dXXtsXq1b+/e47p0GVRO72q1zWuvpVdqME3Mxo0b63sITUJAgBIQULo42VMtf2zOVT6Lny9DQnS3SqVSXn3VYhf/M5YKdAcAAFCDWCwAALCkVStl+XJl82axt5fkZNOarl2HNm/epvQZv/56dNWqPsXFBYWFecuX97xy5WdjVZs2Hl5efiLSqlV7F5duOTlXzM51du6qVtsYjjMyTrZocf8DDzykVtv6+Ew9efLTivRuDb799tvw8PChQ4f6/sFQziPea0myp7p0cAMAANAkMXsIAKxamVOKdu1SJSWJvb2kp8uCBRW5VKdO3n36BO3ZE11UlO/jM83NrXfpNllZ57KyznXu7GNW3rPnaOOxVntZo3nAcNymjccvv3xbfr96fcnSpV1tbOz9/Z/x85tdkaE2Ui+//PLatWt79eqlUqnqeywNiDpUW0tXTqq5S5kvMftf74mIyKh+2XeLLN2U/mMrDUYBAEAdIB4CAGtXevdcEZGJE5WJEyt7qXHjol97bYCtbbPQ0HWla/Pzc95/PyQ8fFOzZq3Mqnr1GmPySrl7pNx7ic1LL33n5NTpxo0L69aNcXP7/9m777CorvwN4N87DQTFoSiCoBgQCyixoEYURVGMBDQ/DRiRJRiDxho1KsagWGOsWaOuEhMVxVhijBI7KWLvsWALxgKKqDiADEy/vz/GjOPQhjLMMLyfx2f3zrnnnvud2UXh5ZxzvTw8elS07NrC1ta2ffv2HGwTXoyBcpMUj2obqux1nSlLOER05KK9pqX44jLDpWAAAAAAhHgIAADUyp7doCexOEciKeDz5XK5xMLCWvuUXC753/8GBwRM9PZ+V7tdJiskIqHQWdNia+uSm5upPhaJMjUziUpjb+9GRA4OLXx8Qh88uGDG8dD06dMnT57s5+cn+HcrqMEVj/BAf4HpqgotLitxLl7F9vwCAAAAMBLEQwAAdUi1ZEBlSEoaHRo67/nze3v2xA4b9q2mXaVSbtgwrG3bID8/3Q2tb9/+g6i7douLi49Y/CIz86qTU5tz55KGDl1ORFeu7PPyClI/oUxbYaFIqZQ3aND45cun168fDA//r2HemUlISkoSiUTp6emYQFRj1LN49A+JdMIgQ3/FAQAAAFQXxEMAAHVIiVMbyjhbovXrh9y9e7qg4HlsrGtISLyf38fq9lOnNnK5/C5dhqtUyiVL/G7d+r116z7qU3fuHLtyZd+DBxePHVtLROHhqzp0eF99Ki3tkE48xDCcESMSEhKGyuWSLl0i1LOBNm2Kmjv3po1NE527v/XWO+vW/Z9UWsDlCnr2jGndum9lPpda4s6dO4cOHcLGQ8UdPrzkzJnNrVoFDBu2urQ+GzdGpqUdtrFxnD37WkXH1/M5YuqvoEp8TeE5ZQAAAGB0jEqF70gAAIyGEy4y3HazxScylBYPGXHxy8KFneKupmDPXX3ExsZGRUW1adPG2IWYFk64aKZHx7i4q8X3tNJ2584xgcAqMXFkJeKh0mh/TRl6EZlB/64AAAAAwOwhAIA6zei7osyadTEOe+7q58qVK4MHD3Zzc9PsPZScnFzFMdPTT1y5sjc39xERCYVN3377fXf37uVeZUT5+U+WLw/w9n43J+e+QiEbPfonIsrNfbx2bWiPHp906TK8tAs9PXs9fZpeg5UCAAAA1CaIhwAAAGqHxMTE6h1wz56Zd+782aXLcHd3P5ZViUSZO3d+1rZt/0GDFlTvjapXTs69Pn0m2tu77dgx6a+/fiEKsra2mzLlD/XZ+fN9JJJ87f4REevbtu1vjEoBAAAAag3EQwAAALVDo0aNqnfACxe2z5//N4fz+psBf/8xcXEtTTweatTIQ/24OkfHVjk593XOxsVdqfmSAAAAAGo7xEMAAFBVht4YGPr3779y5crJkyfrtB85cqQqw3K5gidPbjk7e2tasrJu8PmWVRmzBnC5fPUBh8NRqRQ6Z+fO9S4qytNuiYzc4OUVVEPFAQAAANROiIcAAKCqUlP/V+7GwH5+owICJiYm6j7YHvTx008/WVtb//TTT9U77PDha9euHWRtbS8UNiWi3NxMsVgUGfld9d6lhs2Zc93YJQAAAADUPoiHAACgAopvDPzzz9OxMbCh2djYaP5TTxJJ/smTPwiFTTt1+uDPP9fev3+2cWPPPn0maqd4rVv3nT//78zMKyJRJhFja9vUxeVthmGq/w2YgPXrh9y9e7qg4HlsrGtISLyf38fGrggAAADAhCAeAgCAitHZGDg8fNXFi7uwMXANOH369OrVqzMzMxWKVyuqTp48WVrnH36ItLKyTU8/cf78j1wu38dn0M2bRxMTP46J2andjWE4rq4dXF07aFpOnvzelKMTG5smX355WX3s7z+GiGizaMmSrHIvHD16t0ELAwAAAKjVEA8BQJ3wzX7plMSiwq0NLfkMEc39SbJgt0T+o7DEzmWfBWwMbCxffPHFypUrvby89Jng8/Tp3/HxN1Qq5YwZzl9//YjD4fn6fjhnTqtyL0xOxswaAAAAgDoH8RAAAFQMNgY2Fltb2/bt23M4HD37FxXlSaUFMllhXt4TW1sXsThHp8O8ee2KX5Wfn13VQgEAAACgtkE8BABQMSkepf5wHpiuqslKTBM2Bjac6dOnT5482c/PTyAQqFsGDx5cWuc+fSbGxbVkWTYs7JvvvguzsrLLyLjct+8bzz7Lz88eP36/lZWtduOyZf6GKB4AAAAATBniIQAwK3eylHN3SX+/rhCJVY4NOX28eQmjrfjccq46cUsxeKm4eyve9klWVhavlu2kZSgnbiw6m66sJ6CwdwRLRlhaWzBEFJiuKi0hSvHgICEqDTYGrrqkpCSRSJSenq7PBCJ//zGdO4ezLGttbde5c/jffx+3s2vm7Oyl3cfLK0gmK3Rz89VudHd/p1qq3bgxMi3tsI2N4+zZ1/S8RCTK2Lx55JMnt3g8i759PwsIGK/TISlpTLduke7ufuqXt2//sW3bp0Sn9+79ctCgBWXf/fPPG/N4FkRkYWE9d+6tKr23kqTH4GsfAAAAajHEQwBgPq5nKHvEFdjVZ+I/sGjpxM0SqfZeUMgVLJ9b1kYtO0/LotYUjgywWBVdj/vvD90sSyFfi0f1FXw5xPJcuiJ+l+T+M9X+WOtya9A/IeKEizQHqh1vTN8oHj/VTOqkvm/Z9yphY2AibAxcM+7cuXPo0CH9nyymmRZkYVHf2/tdKrbtdHT0luJXVdf/Un5+owICJiYmjqzQVcHBcS1b+r98+XThwk6tW/dxcmqrffbevbMffrhGfcyy7JYtn3z66Z75U+jmzaPe3gPd3buXcXcOh7t4cYb+lXgk6LuIDwAAAMAMIB4CAPMxfauEYejMwvqNG776uS6ip6DsS5YnS2K3SRYMs5wxyFK7XcXSuCDB1BBLIgrw4lnwmCmJRSduKXq05lGZE4jozYRIu5t27KLJhjQvdRKiGlbG2wHT0aFDh1u3brVp06bSI5S27fSNG0fatu2flna4GneJ8vTs9fRpevH2+/fPb9kyKjb2rEql/Oor35iYnc7O3upTtrautrauRNSgQeMmTVrl5j7Wjoeysm46OnpyOK9mA2Zm/mVtbde0aTsiUdeuI/76a492PFTa3Suk3AlBiJAAAADAbCAeAgAzIVfS79flkf4WmmyoXBM3Fn33m3TLeKthfiWkSNqNw/z4UxKL/kx7FQ+RHgmR5rh/p3/3A34zEtLxRmDU6fUWwkcu2pMhfwrVeRf9O+WUXScY0ZUrVwYPHuzm5qbZeyg5Obm0zhXadjopafTChfe2bBlVofk1lePm5uvjE7pvX5xMVti1a6QmG9KWnX0nO/tOixZdtRvT0g62bfs6vRKJHgmFTdXHtrau//xzuuz7qlTK2bM9uVxBQMAEf//Rr0+kpDBz5pCvL4lEbL9+NGJEpd8aAAAAQO2FeAgAzER+IStTkIu9vutuVCxtOyFr05Q7sCO/xA6OWjGTY0MOh6EXYlbTUvZ0G+3ZQ+ppQTqLzjjFIhjt2UPFB6/ctib6hEo6OdeRi/bYPslkJSYmltiem5srFAp1Gk152+mBA+MWL+7C41mGh68qfrawMPe778IiItZbWjbQbr9x48h//vODVsPrr0eWLf//tDNnnrO3d3v+/N6qVQOcnb08PHq8vjwkhGJjiYgZNIj186MWLSr8lgAAAABqOUyKBgAzYWPFCHiU8VzfaIPD0B9z6meJ2H7zxSKt3EcjO0+lfaxiyc5a3+xJW4oHx8SXbgWmqxAJ1QqNilG3jxs3rnhn9bbTjRt7aP+prm2nq0gszpFICqTSl3K5ROeUXC753/8GBwRMVG+WpCGTFRYW5gqFzpoWW1uX3NxM9bFIlKmZSVQae3s3InJwaOHjE/rgwYUS+7CdOtGt6t+1GgAAAMD0mfRPLAAA+uNzKbAd/6czcu1Yp2ztmnGPzbXOylX1mVvwLF83IUo6LtMcbzshI6LeXq9mXOo5dYj+TV6K5y86Ow3ptfEQyzKzZjExMcyECczYsSSTlX9JRbwuMiWF8fNjJkxgBg+mDIMvNQIDiY7e4unZS6fRRDYIT0oaHRo6z9d3+J49sdrtKpVyw4ZhbdsG+fnpbmh9+/YfrVoFaLe4uPiIxS8yM68S0blzST4+g4joypV9CoW0+B0LC0UvXz4lopcvn16/frBp0xJW3hERc+kStW5dhXcGAAAAUFthcRkAmI+lkZbdvyzo+kXB9FCLlk6c7Dx273n55nGvn1VfnKcTN3Vu/cD5Bb3jC1LirJ1sX+U+HIbWHZVJFdStJfdcunL+bsm7HfiajYfKoP80nDIioZIH2baNFQpp4UIiIqWS9Hi0eSUEpqsoJeXVWpvVq+nSJXJ1NcSNwOytXz/k7t3TBQXPY2NdQ0Jeb4l96tRGLpffpctwlUq5ZInfrVu/t27dR33qzp1jV67se/Dg4rFja4koPHxVhw7vq0+lpR3q2HGI9vgMwxkxIiEhYSjR2Vat+qgXi23aFDV37k0bmyY6d3/rrXfWrfs/qbSAyxX07BnTunXfN4ZKTqYnTyg3lx06tEIry/AwewAAADAbiIcAwHy0aco9u6j+nJ3SObskL4vYJkJO33Y8Pq+cFWFujTipc+sHzhf3ii9IiavfzIFDRAxDv8ZaT/ihaPEv0noCGhlgsTTy1aPNypg6ZNAlWsy1a2xwMBHR6tXMn3+yCxYYbpoDs38/PX5M16+zO3YY6BZgUiwtbYioXr2G1ThmaTOVuneP7t49mog4HG5s7BntU61b91m3ruQvort3T33wwQqdxtat+86bd2dBuOj9979St6xcKSrt7nPnlrJqLDCQDQws440AAAAA1AWMSoVffAEA1AZJSfT4MU2bRkTMzJnskCHUuXPZV3gkcLRnN+i8LFVKCl24QLGxdPw48+uv7NdfV61uMLiIiIikpCSdxrt3T7Zo0U3zGHgzxgkX6bU8s4L0/XqpKQZ6mwAAAABqmD0EAFBLDB/OzJpFMTFkbU15eeTiYrhbMcnJ9OgRPX7MTpxouLtARYnF4u+///7ixYtE5OvrO3LkSCsrKyJas2ZN8c5nz2798cfxjo6ebdsGeXkN0N7UWSM7+7ajYytDlw0AAAAApg+zhwAAzFYlZw+Bqfr000/ffvvtgIAAuVz+888/P3r0aN26dWVfkpV1My3t4I0bRwoLc1u1CvDyCnJ39+Ny+eqzsbGuixdnENGKFQFTpvxh8DdgGNU7rab46lETea4fZg8BAACAQWH2EAAAQO3A4/FGjx6tPvby8howYEC5lzg5tXFyahMYOEUmK7x9+49Ll3bv2jV11qyLOt1ycu5Xe7UAAAAAUIsgHgIAAKgdbGxs7t2716JFCyI6d+5c27Zt9b9WILBq1y64Xbtgg1Vnbvp3yjly0d7YVQAAAADUEMRDAABQJQkJCT///HO3bt3i4+N1ThUVFe3evXvEiBElXnjmzJm4uDi5XB4aGjplyhQimjp1ampqqoODw8GDB0u73bZt2zZv3kxELVq0WL58ubW1dbW9E5N39uzZXbt2ubq6KhSKR48eeXh4hISEEFFycnLlBszNfTR+fD0iUiik6gO11auLqqVgAAAAAKgtEA8BAECVJCUlHThwoMSYRiKRJCUllRgPsSw7c+bMdevWubu7h4WF9e7du2PHjmFhYVFRUTNmzCjtXnl5eStXrkxJSWnYsOHnn3++c+fO6Ojo6nwzNai0fabL8OOPP1ZvDWvXyqp3QAAAAACopRAPAQCAvp49exYREdGrV6/MzEy5XL5mzZqvv/46Ozs7JiYmPDw8NDT04MGD3333nUKh8PT0XLRo0bfffpuZmRkREdG5c+fJkydrD3Xjxg2hUNiqVSsiGjx48JEjRzp27Ni1a9cHDx5o+ixZssTZ2VmdLq1atcrKymro0KEsy0qlUqVSKZVKGzduXMOfQDWaMmWKu7t7bGwsEe3du3fKlCnl7jPdqFGjgoKChw8fSqVSdUuHDh1K6yyR5J88+YNQ2LRTpw/+/HPt/ftnGzf27NNnoqVlA00fDgffBuh6vRF1uMhENqUGAAAAqAH4vhAAACogIyMjKirKxcVl3rx5R48enT179oEDB5KSkogoMzNz69at27dvFwgE//3vf7dv3z5hwoTTp0+rz+rIzs52dHRUHzs5OV26dKl4n+Dg4IULF6rjoQMHDmzcuFEoFE6bNq1v375WVlYdOnQIDq7FO+lkZ2evX79efdymTRt99pnevXv35s2bs7Ky2rVrd/HiRW9v7xI/W7Uffoi0srJNTz9x/vyPXC7fx2fQzZtHExM/jonZqemzYcOHJV47alQ1T1MCAAAAABOHeAgAACqgefPmLi4uRPTWW29lZmZqnzp79mxmZqZ6tZdEInnnnXfKGIdlWc2xSlXyHA0vL6+cnJzs7OwXL14IhUInJ6fCwsLdu3cfPXrUwcFhypQp27ZtGz58eDW8K2No2bLlX3/99fbbbxPR5cuX9dlnesOGDb/88kt0dPQPP/zw/PnzlStXltH56dO/4+NvqFTKGTOcv/76EYfD8/X9cM6cVtp9rl8/4ODQolOncCenNlV8OwAAAABQqyEeAgAwW+kx1b80hs/nqw84HI5CodA+xbKsv7///PnzNS0ikai0cZo0afLkyRP18ZMnT5o0aVJitwEDBhw6dOj58+fqiULnz5+3sbFRdw4MDDx+/HhtjIfU+0nL5fKhQ4e6uroSUUZGhoeHR7kX8vl8CwsLhUKhUCgcHBxevnxZdv+iojyptEAmK8zLe2Jr6yIW5+h0WLr0ydWrv168uPPKlb3t24d07hzeuHH5ZQAAAACA+UE8BABQh3gkcMrtU+lQqWvXritWrPjkk0+aNWuWn5+fm5vr6OgoFotL7NymTZu8vLxbt255eHjs3bv3iy++KLHbe++998UXX+Tm5qp3ZXZ2dr5x44ZIJBIKhSdOnHBzc6tcqcb1ww8/VO5COzu73Nxcf3//0aNHu7i4FBYWltG5T5+JcXEtWZYNC/vmu+/CrKzsMjIu9+37xg5QfH69Tp0+6NTpA4nk5fnzP379dbeQkHm9e4+tXHkAAAAAUHshHgIAqEPKjX70yY9K4+rqOm/evLFjxyoUCh6PFxcX16xZs549e7777rs9evSYNWuWdmcOh7Nw4cJx48ZJpdJBgwZ17tyZiMaOHXv58uUXL174+flNmjQpLCysZcuWYrHY2dnZwcGBiFq2bBkVFTVkyBCGYdq2bfvRRx9VulojysvLy8jICAgI0LSkpKS89dZbjRo1KvvCTZs2EdH48eOPHz+en5/ft2/fMjr7+4/p3DmcZVlra7vOncP//vu4nV0zZ2cvnW4KhezGjcMXLuzIyrrh7z+mXbuBlXxXAAAAAFCbMaXt+AAAAGbGI4GjTzxkiCVpoC0qKmrKlCk+Pj6alnPnziUkJGzYsMHQtz558ns/v481LxMTRz58eLlt236dOoU3b97J0Hc3EE64SLXDtrYMW2mmVg8AAACYmcr/lhgAAIxIoVB4eHjMmDFD/VIikbRv337SpEnql1OnTvX19X333Xcrf4OUFMbPj/nsMyYqirZurXrBoPHgwQPtbIiIfH1979y5U+6FY8eOzc3NVR+/ePFiwoQJFb11cnK89stTpzY9f37v+PHvvvkmcPJkW82fig4LAAAAALUdFpcBANRW9evXT0tLk8vlfD7/999/b9asmeZUWFhYVFSUJjyqHDYkhGJjiYgZNIj186MWLSo9VG5u7rhx47Rb1qxZIxQKq1Je7SWVStXr7zQtCoVCJpOVe+GDBw80H5qdnd3ff/9dRud589oVb8zPz9Z+uXZt+TcFAAAAgLoA8RAAQG3FMEyPHj1SU1P79u174MCBgQMH3r59W32qa9euDx48qK4bsZ060a1bVYmHhEJhUlJSddVT2/n5+a1ateqzzz7jcDhEpFKpli9f3rNnz3Iv5HA4z58/V2/DlJ2dzTBMGZ3z87PHj99vZfXGVKBly/zfHBDfBgAAAAAAEeIhAIBa7b333vvhhx+6deuWlZU1aNAgTTxUokpvKsRcusRGRlbuWihu1qxZkydP7tevn5eXF8uy169fb9GixYoVK8q9cMyYMR988EHfvn1Zlv3tt9+mTZtWRmcvryCZrNDNzVe70d39napWDwAAAADmCPEQAEAt5u3tnZ6enpyc3KdPn2ofnElOpidPKDeXHTq0KlOHQIetre2mTZuuX7+uXh02ZswYLy/dB4qVKDg4uF27dmfPnmUYJioqSns5YXHR0VuKN44evbtyNQMAAACAeUM8BABQu/Xu3XvZsmW7d+/WZ2/jCggMZAMDq3NAeJO3t7e3t3dFr2rWrFnZqZDJem+x2IJPu6daazcuS5Ys3SfNXNeQzzVWXQAAAABAhHgIAKC2CwsLa9y4cfPmzas5HgJDu3ePHjygZs3orbeMXQoREYnFZG1dfrfKiurFj1xdmPOStW/wesukLanyiJ4CZEMAAAAARod4CACgdnNxcRkxYoRO49ixYy9fvvzixQs/P79JkyaFhYWVO06KB4eI1hGlLOEQUWB6JTcqAn0wX3xBT5+yzZoxDx9S48bsokXGroiYzz9n//c/w40f2plf35L58aRs/AALdcvle8prD5WJ462I6J0vC3q25t18pDyXrrDkMwuGWUb6CwxXTNk44SLNgWqHbdmdAQAAAMwD4iEAgFqJx+NdvnxZu6Vfv379+vVTH69du9YYRYHeXr5kN2wgIpaImTzZWFUwPj7UuPGrF7dukSHjIQs+M8xPsCVVromHElNlb7txfZq/mju0+pBkzzTrIB/rlGvy0K/FPs257ZsbYVqRJhvSvERCBAAAAHUB4iEAAHitf6ecIxftjV1FHZCfT5s3U7Nm9PAh5ebqf51HAqeMJ9CVfbYEnTuz33+vPmQ+/bQCF1ZKVC/+2sPSm4+UbZpy5UradkL2xfuWmrPBHflBPnwiCmzHf7+LYM1h2fqYenqOrJPpAAAAAEBFIR4CAACoaey6dbRnD505Q82ascab6sXOm/f6eMUKQ9/O153n5crdkipf9CH34GV5rpgd3uP1CjJvV47muF0zzoHLCj2Hrd7ZPUiaAAAAoG7ilN8FAAAAqle9eiST0cyZFBFBP/1ULUNWeOoQETVtSps2vTqupjLK9h9//tbjMhVLiamy4I78Rjavt6lWqF4fy5XEMCVdDwAAAACGgXgIAADACJjr118dpKXVnTIi/QVZItWu07JfL8qjer2x+fSZvxVax8pWzsZ5npnOXCRsPAQAAAB1BBaXAQAAkeZRZeEiPLOshjx9SqdOERE9flx3ymgi5AT58D/dUNTQihnYka996ly6cuk+yZCugl/Oyw7/Jb+wuEEN1FMidSSETakBAACgTkE8BAAAYATskiXMunXqg6qPVpmVZQYoQx8f9eYfuCz/LNiC/+b0oM8GWpy/q4rf9dK+AfP9p1Zvuxln9hAAAABA3YR4CAAAwBiaNGHj441dhBHKGNpNoNohKN7eoB7tnGxVk5UAAAAAgAbiIQAAAANK8dDd5s+Ul+/VrmoNRPPwMqwvAwAAgLoDW1MDAAAAvKLzYHs85x4AAADqCMweAgAAACM7vaB+aac0E5rq4DwmAAAAgBqDeAgAAGqr2jGzo1MvXad5AAAgAElEQVSO+r+PXLRXH3gkGGTqbrUMu46IiPr/WzMRkdE/ZE0xRq8EAAAAwHwhHgIAgFrM9LeGKb6bT+UeMaZWRgZUlWE1UpZwSCvJIhOYs1PDs4dqR+YIAAAAUN0QDwEAAIDpquF8SrXDVjshMv38EQAAAKBaIB4CAAAwIKPPvqmQ2lWtgagjITy2DAAAAOoUPLkMAACg1kuPURloSyMAAAAAqAvwrSQAAAAAAAAAQJ2GeAgAAAAAAAAAoE5DPAQAAGAOsL4MAAAAACoN30cCAACYs6ysGzdvpkilBZqWy5f3GLEeAAAAADBBiIcAAADMRHqM7nPH/vhj9apVAw4fXhwf3zYt7ZC6cceOiTVeGgAAAACYNDzYHgAAoNYoHgCV7bffvpk161L9+g7Z2Xe++y48L+9J9+4fGaY0AAAAAKjFEA8BAACYLYVCWr++AxE5OnpOmfL72rWD8vOfGLsoAAAAADA5WFwGAABgtpo0aX337in1sZWV7aRJh//551Ru7iPjVgUAAAAApgazhwAAAMxWVNQP2i/5/Hpjxvx8506qseoBAAAAANOEeAgAAMBs2dq66rRwOLycnHtGKQYAAAAATBYWlwEAANQtycnxxi4BAAAAAEwLZg8BAACYrXnz2hVvzM/PrvlKahFOuEhzoNpha9xiAAAAAGoG4iEAAACzlZ+fPX78fiurNzKOZcv8jVWP6dNkQ5qXSIgAAACgLkA8BAAAYLa8vIJkskI3N1/tRnf3d4xVDwAAAACYJsRDAAAAZis6ekvxxtGjd9d8JbWXznyiKsJcJAAAADBNiIcAAADqitzcR0JhU2NXUctUY6BTvUkTAAAAQDXCk8sAAADqiuXLexu7BFOnEwZhsg8AAADUEYiHAAAAAF5T7bBVp0LIhgAAAKDuQDwEAABQV/TqNdbYJQAAAACAKcLeQwAAAGZOoZAeP56Ql5c1ePCiZ8/uikSZnp69jF0UAAAAAJgQzB4CAAAwc4mJH4vFL27d+p2IrK3tdu2aYuyKAAAAAMC0YPYQAAAQaT1TiRMuwpYrZiYr68bIkVvv3PmTiKysbBUKqbErMl0pHv/+5qxTjvo4MF1lzIIAAAAAagRmDwEAgO7ztvH4bTPD4fA0kdCzZ3e5XPxyCAAAAADegG8QAQAAzFy/fp+vWjUgJ+f+tm2f/vXX3oiIdcauCAAAAABMC+IhAAAoASYQmZPOncPc3Hzv3DlGxPbvP93BoYWxKwIAAAAA04J4CAAASoDth8zD4cNLOnR4v3Hjlg4OLZAKVciRi/bGLgEAAACg5mDvIQAA0A2DkA2ZjV9/jf/mm35ffdUlJWVlXl6WscsxCIVC4eHhMWPGDPVLiUTSvn37SZMmaTqoVKqhQ4eGh4cbqUAAAACAWgCzhwAAgOjfSAiPLTMz1tb2CxfeS08/cf78jwsWdGja1NvX98MOHYZYWQmNXVp1ql+/flpamlwu5/P5v//+e7NmzbTP/vjjj66uro8fP9ZnKM1zyjwSOOkxeGYZAAAA1BWYPQQAAGDOGIZp2bLn8OFrFy/O6Nt38u3bf8TFtTR2UdWMYZgePXqkpqYS0YEDBwYOHKg5lZOTc+DAgREjRhivOgAAAIBaAPEQAABAncDl8tu1Cx45cuuiRfeNXUv1e++99/bv3y8Wi7Oyslq2fJ1/ffXVV5MnT+ZwqvANz61bzAcfMOPHMyNHkgrziQAAAMA8YXEZAACA2Zo8OaV4o4WFdc1XYmje3t7p6enJycl9+vTRNJ45c4ZhmM6dO1++fLnyQx88yIaGUmRkNVQJAAAAYKowewgAAMBsOTq2Kt548uT3NV9JDejdu/eyZcvee+89TcvFixdPnTrVq1evsWPHXrt2bfTo0ep2j4SKfP8zahRz9y4zahQzbRrJZNVbMwAAAICJQDwEAABQtyQnxxu7BIMICwv77LPPmjdvrmkZN27cyZMnjx07tnbt2nbt2q1fv74y4zZowMbHsxs2kEBAKSXMxgIAAAAwA1hcBgAAYLbmzWtXvDE/P7vmK6kBLi4uldiCuvwnlP3yC3PkCAkElJFBU6dWvj4AAAAAE4Z4CAAAwGzl52ePH7/fyspWu3HZMn9j1WMIPB5PZ2uhfv369evXT7ulQ4cOO3bs0LlQ3yVmgwezgwdXrUYAAAAAU4fFZQAAAGbLyytIJits3NhD+4+7+zvGrsv4Krb9kH4SEhIGDBgQHx9f/FRRUdHWrVtLu/DMmTP9+vXr3bv3ihUr1C1Tp0719fV99913y7jdtm3bgoKCgoKCxowZIxaLq1Y7AAAA1HWMCo9oBQCAf3HCRaodtuX3A6jN9MyGyll0VkyvXr0OHDhgbV3Cg+FEItHw4cMP22wr/vXFsmyfPn3WrVvn7u4eFhb25ZdfduzY8ezZs/Xq1ZsxY8bBgwfV3XS+NvPy8gIDA1NSUho2bPj55597eXlFR0dXqFoAAAAAbVhcBgAAYLYyMi7b2TW3traTSguOHFmamXnF2dk7KGi6paWNsUszIRWNgYjo2bNnH374Yffu3XNzc5VK5dKlS5ctW5adnR0TExMeHh4aGnrw4MHvvvtOoVB4enouWrTo22+/zczMpLa0cuXKyZMnaw9148YNoVDYqlUrIho8ePCRI0c6duzYtWvXBw8eaPosWbKE6BP18apVq6ysrIYOHcqyrFQqVSqVUqm0cePGVfsMAAAAoK7D4jIAAACztX79BzyegIi2b5+Qm/vIz+9jieRlYuLHxq6rphWfLpQeo6pEKqTt4cOH0dHRq1atat++/ffffz979myhUJiUlBQaGpqZmbl169bt27fv27fP1dV1+/btEyZMcHFxISKdbIiIsrOzHR0d1cdOTk5Pnjwpfq/g4GDN8YEDB4KDg4VC4bRp0/r27du9e3e5XK7dAQAAAKASEA8BAACYLZlMLBBYE9H9++dGjEho3z4kPPy/mZlXjV2XqahKSOTq6tqiRQsiCggIuHDhgvaps2fPZmZmRkdHR0REpKamPn36tIxxWJbVHJe25N/Ly4uIsrOzb968KRQKnZycCgsLd+/effTo0ZMnTwoEgm3btlXuXQAAAACoYXEZAACA2WrevPOhQ18FBU13cXn7n3/OuLt3z8y8KhDUM3Zd5kChUKgP5HK5zimWZf39/efPn69pEYlEpY3TpEkTzYyhJ0+eNGnSpLSehw4dev78uXqi0Pnz521sbNSdAwMDjx8/Pnz48Mq+FQAAAADMHgIAADBfkZEbHjy4MGOGy9Onfy9b5h8b67J580cjRiQYuy5z8OjRI/WkoV9++cXX11f7VNeuXX/77beHDx8SUX5+/sOHD62srEp7uFibNm3y8vJu3bqlUCj27t0bGBhY2h1//fXXQ4cOqR9n5uzsfOPGDZFIxLLsiRMn3NzcqvGtAQAAQB2E2UMAAABmy8bGccyYn/Pzn2Rn/82ySqHQpXFjD2MXZSY8PT337NkTHx/v4uKis6OQq6vrvHnzxo4dq1AoeDxeXFxcs2bNevbseSKdFi5cOGvWLO3OHA5n4cKF48aNk0qlgwYN6ty5MxGNHTv28uXLL1688PPzmzRpUlhYGBGJxWJnZ2cHBwciatmyZVRU1JAhQxiGadu27UcffVRz7xwAAADMER5sDwAAr+HB9mZPoZAWFopsbEpdwWSWPBI42nsM6byshGfPno0cOTI5OblCV1Xl6wtfmwAAAGBQWFwGAABQh6SlHZ4zp42xqwAAAAAA04LFZQAAAHWIj0/oypWlbpNcC7As8+WX9OwZWViQUsl+8w0JBAa5UUoKM2cOdexIGRnst9+Sq6v2yUaNGlV06pBabm7uuHHjtFvWrFkjFAqrVCoAAABAlSEeAgAAMFsZGZft7JpbW9tJpQVHjizNzLzi7OwdFDTd0tKmxP7f7JdOSSwq3NrQks8Q0dyfJAt2S+Q/lhxelH3WULZtY4VCWriQiEipJI4B50GzISEUG0urV9OlSzrxUKUJhcKkpKRqGQoAAACgGmFxGQAAgNlav/4DHk9ARNu3T8jNfeTn97FE8jIx8WNj11V5zLVr1K0bEdHq1Ux4ON2+bcB77d/PTJzI/Pwzde9uuLsAAAAAmALMHgIAADBbMplYILAmovv3z82efY1hOO3bh8ye3crYdVUe264dnTlDPXvS+PH06BEVFOh08Eh4/auvKu4/zQYHU2wsHT/OLFvGfv11VYYCAAAAMHGIhwAAAMxW8+adDx36KihouovL2//8c8bdvXtm5lWBoN6dLOXcXdLfrytEYpVjQ04fb17CaCs+t5zRTtxSDF4q7t6Kt32SlZUFo25My1BO3Fh0Nl1ZT0Bh7wiWjLC0/veUQQwfzsyaRTExZG1NeXnk4qI5ow6GdJ5QRlUIiZjkZHr0iB4/ZidOrFrRAAAAAKYO8RAAAIDZiozcsG3bpzNmuNjZNVu2zL9hwyYNGjTu0m9Tl5kFdvWZ+A8sWjpxs0SqvRcUcgXL55YV6+w8LYtaUzgywGJVdD3uvxN0WJZCvhaP6iv4cojluXRF/C7J/Weq/bHW1VV/iofuKvjAdBW7aFFp/XWSoPQYlfZkonLvFZiudXlgIBsYqG+hAAAAALUc4iEAAACzZWPjOGbMz/n5T7Kz/2ZZpVDo0rixx8CvxAyjOLOwfuOGr6KTiJ7lPPxrebIkdptkwTDLGYMstdtVLI0LEkwNsSSiAC+eBY+Zklh04paiR2vdbzA0Qc8bEUz18UjglDhLqKIJERmsQgAAAABThq2pAQAAzJyNTRO5vMjTs/ezZ3flSvr9unxoN4EmGyrXxI1FX+6QbBlvpZMNqQ3zE2gd84nozzRFiePUltglxYOj/mPsQgAAAABqDmYPAQAAmL+kpNELF97bsmXUtFkPZQpysdd3eyAVS9tOyNo05Q7syC+xg6NWzOTYkMNh6IWYLbEnJ1xEnXIoXFSBujvlqP/7yEV79YH+U4GqqH9FSwUAAACozRAPAQAA1CE2VoyARxnP9Z3Iw2Hojzn1+y8Q95svPjTL2tZaN1fKzlM1teNojlUs2RXro6aOeCo0h6j4FJ7S9pmu3tgoMF1VO2Y6AQAAAFQTTJwGAACoQ/hcCmzH/+mMPDtP3wCkXTPusbnWWbmqPnMLnuXrzgxKOi7THG87ISOi3l4l/PIpMF2l/lPZwstR2h5Dpe1JVBqDFgkAAABgsjB7CAAAoG5ZGmnZ/cuCrl8UTA+1aOnEyc5j956Xbx73+ln1xXk6cVPn1g+cX9A7viAlztrJ9lUQw2Fo3VGZVEHdWnLPpSvn75a824FffF/qSqtoUqMTBlVoSlG1pEKHDy85c2Zzq1YBw4atLq3Pxo2RaWmHbWwcZ8++VvU7AgAAAFQLxEMAAAB1S5um3LOL6s/ZKZ2zS/KyiG0i5PRtx+PzytmNyK0RJ3Vu/cD54l7xBSlx9Zs5cIiIYejXWOsJPxQt/kVaT0AjAyyWRpawfXXNUAdD2pFQheYNVYvU1P/FxV21tGxQRh8/v1EBARMTE0fWWFUAAAAA5UI8BAAAYP4sLW2IqF69huqXnk7cHydZFe/2WbDFZ8EWmpdzhlrOGfo67nG25dxY0aD42d9m1zdQ2ZVQY5FQfv6T5csDvL3fzcm5r1DIRo/+6eefp+fmPl67NrRHj0+6dBle2oWenr2ePk2vmSIBAAAA9IR4CAAAwPzFxV0hojlzrhu7ELOSk3OvT5+J9vZuO3ZM+uuvX8LDV128uGvKlD/UZ+fP95FI8rX7R0Ssb9u2vzEqBQAAACgH4iEAAACzlZV14/nze+3aBWtarlzZ16RJK0fHVkasymw0auRhb+9GRI6OrXJy7uucVUdyAAAAALUC4iEAAACztXPnZ4MGLdBusbIS7to1dfz4X41VkjnhcvnqAw6Ho1IpdM7OnetdVJSn3RIZucHLK6iGigMAAACoCMRDAAAAZuvp03Q3ty7aLR4ePTdu/I+x6qlTsJQPAAAAapEKPPAVAAAAahe5XKIzq0WplCsUUmPVA0S0fv2QZcv8nzy5HRvrevLk98YuBwAAAICIiFGpavqZrwAAYLI44SLVDltjVwHVZuPG/9jZNQsNnccwHCJiWdWePbH5+U8/+miTsUurUR4JHO0nmum8rBXwtQkAAAAGhcVlAAAAZissbOWGDcPnzGnt6tqBZdmHDy85OrYcOTLJ2HUBAAAAgGlBPAQAAGC2rK3tJ006/ODBxaysNCIaMCC2WbOOxi4KAAAAAEwO4iEAAAAz17x5p+bNOxm7CgAAAAAwXYiHAAAAwMwZaKehjRsj09IO29g4zp59Tf+rbt/+Y9u2TxUKWZcuwwcNWqB96vPPG/N4FkRkYWE9d+4tnQuTksZ06xbp7u5X7jjFCyt7ZAAAAADEQwAAAFDneCSU//DWckMlP79RAQETExNH6n9flmW3bPnk00/3ODm1WbLEz9t7oLt7d81ZDoe7eHFGadfeu3f2ww/X6DNO8cLKHhkAAAAA8RAAAADUOeVGP/rkR56evZ4+TS/efv/++S1bRsXGnlWplF995RsTs9PZ2Vt9KjPzL2tru6ZN2xFR164j/vprj3asUzZHR08Oh6vPOKUVBgAAAFAaxEMAAAAA1cnNzdfHJ3TfvjiZrLBr10hNNkREItEjobCp+tjW1vWff05rX6hSKWfP9uRyBQEBE/z9R+sM27ZtkJ7jFFf2yAAAAACIhwAAAABKl5LCzJlDvr4kErH9+tGIEfpcNHBg3OLFXXg8y/DwVW+eYV8fsbozmGbOPGdv7/b8+b1VqwY4O3t5ePTQPuvlNUDPcYore2QAAACA8idOAwAAANRlbEgI+8037ObNzK5ddO+ePpeIxTkSSYFU+lIul2i329q65OZmqo9FokzNDCA1e3s3InJwaOHjE/rgwQVNu0xWSERCobOe4xRX2sgAAAAAaoiHAAAAAPTCdupEt/R67FdS0ujQ0Hm+vsP37InVbndx8RGLX2RmXlUq5efOJfn4DCKiK1f2KRTSwkLRy5dPiejly6fXrx9U7yukdvv2HzrjlzFO8WLKGBkAAABADYvLAAAAoG6p9HPumUuX2MhIzcv164fcvXu6oOB5bKxrSEi8n9/H6vZTpzZyufwuXYarVMolS/xu3fq9des+r0ZgOCNGJCQkDJXLJV26RKgXeW3aFDV37k2x+MW6df8nlRZwuYKePWNat+6ruVFa2iGiN3awLmMcG5smOoW99dY7pY0MAAAAoMaoVJX8DgkAAMwPJ1yk2mFr7CoAjM8jgfMqRdLsPZSbywYG6rn3UPVauLBT3NUUfG0CAACA4SAeAgCA1xAPAai9jodMA742AQAAwKCw9xAAAAAAAAAAQJ2GvYcAAAAAXknxePWbs3VEKUs4RBSYbkJziAAAAAAMBLOHAAAAAAAAAADqNMRDAAAAALr6d8oxdgkAAAAANQfxEAAAAAAAAABAnYZ4CAAAAAAAAACgTkM8BAAAAAAAAABQp+HJZQAAAACvvH5OWbgIzywDAACAugOzhwAAAAAAAAAA6jTEQwAAAAAAAAAAdRriIQAAAAAA0PXNfiknPFciZ9Uv5/4k4X+YW1rnss8CAIDpw95DAABARJTiwSEi6pSjPsCuKwAAAAAAdQfiIQAAAAAAs/Uq/UfuDwAAZcLiMgAAAAAAc9a/U04ZZ+9kKSNWFTrF5FtG5DYfmx+9tlCuLH/ME7cUDh/nhS4RF0pZTWNahrLvvIL6/8lrNCpv3PdFYq1TAABg4jB7CAAAXjty0d7YJQAAQM25nqHsEVdgV5+J/8CipRM3S6Tae0EhV7B8LlPGVTtPy6LWFI4MsFgVXY/776+bWZZCvhaP6iv4cojluXRF/C7J/Weq/bHWNfE2AACgyhAPAQAAAACYrcB0FYWLSltZNn2rhGHozML6jRu+inkiegrKHnB5siR2m2TBMMsZgyy121UsjQsSTA2xJKIAL54Fj5mSWHTilqJHa/zEAQBQC+AvawAAIPp3TwqPBE56DDanAACoE+RK+v26PNLfQpMNlWvixqLvfpNuGW81zK+EFEm7cZgff0pi0Z9piIcAAGoH7D0EAAAAAFAX5ReyMgW52Je1jkybiqVtJ2RtmnIHduSX2MFRK2ZybMjhMPRCjO2HAABqB8RDAAB11a1bzAcfMOPHMyNHkgozhgAA6hwbK0bAo4zn+v4TwGHojzn1s0Rsv/liUUm5T3aeSvtYxZKdtb7ZEwAAGBemegIAGNzGjZFpaYdtbBxnz76m/1W3b/+xbdunCoWsS5fhgwYt0D71+eeNeTwLIrKwsJ4795bOhUlJY7p1i3R39yvn7gcPsqGhFBlZiXcEAFDbvb9MfPSq4vF6G5t6uvlF4PyCy/eUj9fb/HhSPvJ/hepGSz7Z1ud4u3IHduBFBwi0r9r0p0yfbiaIz6XAdvyfzsgXfqhy1G99Wbtm3GNzrQPni/vMLTjyZf1GNm+8waTjsun/bki07YSMiHp74ccNAIDaAbOHAAAMzs9v1Pjx+yt0CcuyW7Z8EhOza/78OzdvHr1795T2WQ6Hu3hxxuLFGcWzISK6d+9sixbdyr/7qFHM3bvMqFHMtGkkk+lfm0cC/u0AgFovuregUMruPKX7t9+DZ6o/0hTDewgs+K+Cj4XDLPdNt06aaD17iEUjG2ZGUpH31JdXH+g++13PbqZmaaQlw1DXLwrWHpYevSrfelz2wYo3nlVfnKcTN3Vu/ZcStnd8QZbo9XQhDkPrjsrm75YcvSpf+LPkix8l73bgY+MhAIDaAt/iAwAYnKdnLysr2+Lt9++fnz/fRy6XSKXi+Pi2jx9f15zKzPzL2tquadN2HA6va9cRf/21R897ZWXddHT05HC45d6dGjRg4+PZDRtIIKCUlIq9JQCA2iDFg6P5o3NqYAd+EyFn0zG5TvvmYzKWpeiA11ssv+PJe68T//0u/NH9LLZOsDq9oMHLInbQUrFU/kaGomc3U9OmKffsovrvePLm7JKEfC3+crvExorh88qZ9OTWiJM6tz5L1Cu+4OG/a9MYhn6Ntf4zTTF4aeHK/dKRARY7J1sZ/h0AAED1QJwPAGA0bm6+Pj6h+/bFyWSFXbtGOjt7a06JRI+EwqbqY1tb13/+Oa19oUqlnD3bk8sVBARM8PcfrX0qLe1g27ZBet3+l1+YI0dIIKCMDJo6tapvBgDAJKkfy1g8HuJxKdJfsHSf5E6W0tPpVaTOsrQlVebTnNuxBVd3oH91aMGdPdRiaqLkpzPyMp4Br2c3U+DpxP1xUgk5zmfBFp8FW2hezhlqOWfo6yfZO9tybqxoUPzsb7PrG7JYAAAwFMweAgAwpoED427ePPrgwcWgoOlvnnn922aW1d00dObMc/Pm3Rk3LjklZUV6+gntUzduHPHyGqDXvQcPZteuZb/5ht29m+zsip/3SOBgHRkA1HaccFFpp0YG8Ilos9YEotSbirvZKu2pQyUK7SwgouO3ylk4pmc3AAAAU4Dv+wEAjEkszpFICqTSl3K5RLvd1tYlNzdTfSwSZWpmEqnZ27sRkYNDCx+f0AcPLmjaZbLCwsJcodC5ilUhGAIAc1J86pBaK2fuO568Laky1b+B/OZjMgGPInqUEw81d+AQkfa2O1XpBgAAYArw3T8AgDElJY0ODZ3n6zt8z55Y7XYXFx+x+EVm5lWlUn7uXJKPzyAiunJln0IhLSwUvXz5lIhevnx6/frBpk3baa66ffuPVq0CqliSTjCkjoq0/1RxfACAGqNeWRaYrlIfFBfdm5+Zozp6VU5EYin70xn5IF+BfYNydt7RczMhk95zCAAA4E3YewgAwODWrx9y9+7pgoLnsbGuISHxfn4fq9tPndrI5fK7dBmuUimXLPG7dev31q37qE8xDGfEiISEhKFyuaRLlwgPjx5EtGlT1Ny5N8XiF+vW/Z9UWsDlCnr2jGnduq/mRmlphzp2HKLn3UuUHqOiNxMidYs2JEQAYDbCuwsmb5ZsPiYP8uHvOi0vkLDRvfnlXvXgmYqInO3K+ctQz24AAACmAPEQAIDBjR69u8T27t2ju3ePJiIOhxsbe0bnbOvWfefNu6PdsnKliIhsbJqU+Dx7Irp799QHH6zQ8+5lKB4SlcEjgVM8QgIAqBUa1GOGduPvOCXLFdfb9KfMxZ7T36f8eGjveRkR+bcpdfvqCnUDAAAwBfhtBgCA+Zg16yKXW/4PNnpKj1Eh94Fa7b3F4iHLxTqNy5Iljp/kybFZMPwrOkAgkdNXv0iP31JE9RJwyllYRpfvKRf8LG3RmDOka1lbFOnZDQAAwERg9hAAAACYp6he/MjVhTkvWe2tZLakyiN6CviYzwH/8m/Da+nEWZYsIaKPepcQ5Zy+oyiQsAoVZeeqjt9S/nRG1kTI2TvdWsCrTDcAAADThH+vAAAAwDyFdubXt2R+PCkbP8BC3XL5nvLaQ2XieCsiyitkYxKKfr0ob2TDzA+3nL1T8tWHlsP8MNGjLvqol2DWdkmvtjx3xxJm1s/aLiEiAY/s6nO8XbmLh9f7uI+gQT3dWUZ6dqthnHCR5kC1w9a4xQAAgClDPAQAUIsdPrzkzJnNrVoFDBu2urQ+GzdGpqUdtrFxnD37Wk3WBmB0FnxmmJ9gS6pcEw8lpsreduP6NOcS0ZTEopuZyj/mWNcTMJM3Fz3Nw2Om6q6Z71vOfN+yePtHvQUlzieqXLeap8mGNC+REAEAQGkQDwEA1GKpqf+Li7tqadmgjD5+fqMCAiYmJo6ssaoATEdUL/7aw9Kbj5RtmnLlStp2QvbF+5ZElF/EbkmVHZ5Vv4sHj4jWfWLlOSnf2MUCGJxOYFTXIB0DACgD4iEAgNohP//J8uUB3t7v5uTcVyhko0f/9PPP03NzH69dG9qjxyddugwv7UJPz15Pn6bXZKkApsPXneflyt2SKl/0IffgZXmumB3eQ0BE/2SrFErq/NarLYg8mnBsrY28CI1prpMAACAASURBVAigBtTlfKSOR2MAAOVCPAQAUGvk5Nzr02eivb3bjh2T/vrrl/DwVRcv7poy5Q/12fnzfSSSN6Y/RESsb9u2vzEqBTAh//Hnf3tItmCYZWKqLLgjv5FNyTEQlpYBAABAXYZ4CADA4N5fJj56VfF4vY1NsT1KA+cXXL6nfLzexoLP/JmmWLJPevWBMqdA1ciG06YpN7Qzb1zQqz1TTtzmHCna+8ssu5yCXBuLGS42L0a+kGoPFRd3pYbeD0CtEukv+OJHya7Tsl8vynd8Zq1ufMuRw+PShX+UAV48Ikp/osoVIyACc6PaYas9ZaYuTx0CAIByIR4CADC46N6CveflO0/JRvW10G5/8Ez1R5pibH8LCz6z45Rs+KrCji24M9+3cGzIZOawp+4oNx+TqeOhHadkw1cJnCyFM8MsHBsyqecvX86w2XxM1ltrtLlzvYuK8rTHj4zc4OUVVANvEMCUNRFygnz4n24oamjFDOzIVzfa1GMi/QWTNhZtGFNPvTV1PQHDYHkZmB11JIRNqQEAoFyIhwAADG5gB34TIWfTMblOPLT5mIxlKTpAQETLf5U2teMcn1ffkv/qJ9TPgkkqfzWdYfmvUichO6rpxHFBZ4mosez2APfnfft1jJv1erQ5c67XzNsBqHU+6s0/cFn+WbAFn/u6ccV/6n2yvqh3fEEjG86CYZZpGRLNVx8AAABAXYN4CADA4HhcivQXLN0nuZOl9HR69eMpy9KWVJlPc27HFlwiEhWwzrYcnZ9OLf59KSpgnYTEY2Qlni3b+vVD7t49XVDwPDbWNSQk3s/v42p4SwC1ytBuAtUO3eeON7Ridk62IrIioiyR6mm+yr0JxxjVAQAAABgf4iEAgJowMoC/dJ9k8zH5wmGv4qHUm4q72apvPqqnftmjNW/zMdms7ZL/+PNbOXN1Lu/Rmrf5mKr/+6dvP1a2cub6+49Rty9ZklXurUeP3q1/nSkenMB0lf79qyLFQ/dH8Rq7NQARnUtXZOexnd7iZuey05OK3nbjertySevxRliPU9u9+kumU47mb5s6+JeMzodQdz8BqtMfAgCAPhAPAQDUhFbO3Hc8eVtSZfPDLTkMEdHmYzIBjyJ6vJrRsDSy3pNc9qs9kq/2SOzqM/5teO934Uf0FKg7l322euG7Z6gj5EqauU3yT7bSxorp3Za/ZbwlFXv0NRIiAAAAqCMQDwEA1JDo3vyYhKKjV+VBPnyxlP3pjHyQr8C+wauAx6EBc/AL69uPlSnXFOfvKo9cUfxyXr71uPzATGsup5yzOqrl9+QIicDs+bXiXV/ewNhVAAAAAJgExEMAADUkvLtg8mbJ5mPyIB/+rtPyAgkb3Zuv06eVM1e9skymoDHfFW76U7brtGyYn0Cfs9r6d8ohInpzHoReOuUcuWiveaXnWjOPhMrs2LLu34NX1VKlCgYAAAAAgCpDPAQAUEMa1GOGduPvOCXLFdfb9KfMxZ7T30c3HtIQ8GjCAItNf8quZ5SQzpR9lojUEU8l5v5o7wek/+XpMZWZZJSy5NW9NIEUJiuB0XGQUZod7ci7zsKHQPgQAADKgyd0AADUnOgAgUROX/0iPX5LEdXrjZ2DbmQqdTpf/EdBRI0bMuWe1RGYrlL/qXSdVbwcoPbS2WkIGw8BAABAHYHZQwAANce/Da+lE2dZsoSIPur9xqKwQUvEDa2YIV35LZ04MgWdv6tcf1Ta1I6j3ru67LNVlZLCzJlDHTtSRkbgHw/I1bUaxtTBssyXX9KzZ2RhQUol+803JBAggQLTpI6EsCm1GVD/JeORwKncDEfzYDYfwujRo9evX1+JCzX/1pjBhwAAYFCIhwAAatRHvQSztkt6teW5O74xf/PriHq/nJdvPiZ/9EIlU7DNHDgj+1h88b6Feu/qss9WHRsSQrGxtHo1XbpkkHho2zZWKKSFC4mIlEriYO4qABiATEZ8Pt2+TQUF5OJCTZoYuyBjMJcPITw8XPvltWvX1C07duwo50pz+QQAAGoY4iEAgBo1833Lme9bFm//v678/+ta6lZEZZ+tOmb/fnr8mK5fZ8v9trty41+7xgYHExGtXs38+Se7YAG1bm2IGwFAXcZMmcKuWsV8+SW1bElPn7Lff2/siozAbD4EpVLp6uo6YsQIDodDRGPHjo2NjdXnQrP5BAAAahh+fwsAAMQGB7OrVrFz5zLLlhlk/Hbt6MwZIqLx46llSyooMMRdAKCu43CIw2F792a/+ooaNjR2NUZiLh/Czp07O3fuvGLFCqVS2aFDB4FA0KFDhw4dOpR/pbl8AgAANQyzhwAAgJjkZHr0iB4/ZidONMgNhg9nZs2imBiytqa8PHJxMchdAKCOk0iIiMaPJ6K6G0Oby4fA4XAiIiKCgoIWL168Y8cOhUKh75Xm8gkAANQwxEMAAHVeYCAbGGjYWzAMu2iRYW8BAODgQEuXUrdudOYMNWpk7GqMxLw+BAcHh2XLlp05c8bNzU3/a8zpEwAAqDFYXAYAAAAAJiQhIeH+/fuVuJBduJCcnZn9+8nZmV2woLrrqlEFBQUbN248cOAAEW3dunXatGlr1qwRi8XlXmhOH4JGt27dxo0bR0Q7d+4st7NZfgIAADWAUanwfEcAAKgAnWcD41HBYJZM7cH2plaPQXl5ednb29vb24eEhLz33nuNGzeuymi19O+o0aNH29jYFBYWqlQqPp8fGBh44sSJoqKib7/9thKj1dIPoTg/P7+TJ09W7lqz+RAAAAwEi8sAAIwgISHh559/7tatW3x8vM6poqKi3bt3jxgxosQLz5w5ExcXJ5fLQ0NDp0yZQkRTp05NTU11cHA4ePBgabfbtm3b5s2biahFixbLly+3trautncCAFDdhELhsWPHLly4kJycHBIS4unpGRISMmDAABsbG2OXVnPu379/+PBhpVL5zjvvnDp1isfjhYSEBBp6IbApeffdd4s3Pn/+vOYrAQCoIxAPAQAYQVJS0oEDB0qMaSQSSVJSUonxEMuyM2fOXLdunbu7e1hYWO/evTt27BgWFhYVFTVjxozS7pWXl7dy5cqUlJSGDRt+/vnnO3fujI6Ors43AwBQ3RiG8fX19fX1nT179vHjx5OTk5csWXLhwgVj11WjXr58WVhYWFRU9Pz58yZNmuTm5hq7ohr1/Pnz77//vuGbjx4bNmyYseoBADB7iIcAAAzr2bNnERERvXr1yszMlMvla9as+frrr7Ozs2NiYsLDw0NDQw8ePPjdd98pFApPT89FixZ9++23mZmZERERnTt3njx5svZQN27cEAqFrVq1IqLBgwcfOXKkY8eOXbt2ffDggabPkiVLnJ2d1enSqlWrrKyshg4dyrKsVCpVKpVSqbSKyzQAAGoSj8cLCAgICAgoLCw0di01Kioqqk+fPizLxsXFTZgwoWHDhjdu3KhT4b6/v39RUVH79u21G/V6sD0AAFQK4iEAAIPLyMiIiopycXGZN2/e0aNHZ8+efeDAgaSkJCLKzMzcunXr9u3bBQLBf//73+3bt0+YMOH06dPqszqys7MdHR3Vx05OTpcuXSreJzg4eOHChep46MCBAxs3bhQKhdOmTevbt6+VlVWHDh2Cg4MN+V4BAKpqy5YtxRutrKxqvhIjGj58eHBwMMuyQqHwvffeO3/+vLOzc8uWLY1dV81Zvnx58ca1a9fWfCUAAHUE4iEAAINr3ry5i4sLEb311v+3d+9xUZX5A8e/Z2AAQWFADUXxkmgJudnNSyReIm+Y1s9W/VHmpVrdQjNtzTTTNLPUttLNbuv+LNHSLDXWS4rlBU1Fc20Tb6SmpGgiI8ptGOb8/hiDEQUHOMMMM5/3y9e+zjznnOf58mVihy/P85xbMzIybE/t3r07IyPD+gfhgoKCzp07V9CPqqolx+U9WCAqKiorK+vcuXMXL140GAyNGzfOy8v76quvNm3a1KBBg/Hjxy9btiw+Pl6Dr+oP7PQJQFu33nqrs0NwCSXrqvz9/bt27ercYAAAbo/yEAA4nF6vtx7odDqz2Wx7SlXVmJiYmTNnlrRkZ2eX10+jRo0yMzOtx5mZmY0aNbrhZb17996wYcOFCxesE4VSU1MDAwOtF8fGxm7fvl3b8hAAaOv555+/Yft7771Xw5E4EUkgAwBQwygPAYAzdezY8e9///szzzzTrFmznJwco9EYGhqam5t7w4vbtm176dKlw4cPR0RErFmzZvLkyTe8rF+/fpMnTzYajZ9//rmIhIWFpaWlZWdnGwyGlJSUFi1aVBBPxMe6an9NAFAtW7ZsCQ8Pj4uLi4iIcHYsTkMSyAAA1DDKQwDgTOHh4TNmzHj22WfNZrO3t/fUqVObNWvWpUuXPn36PPDAA1OmTLG9WKfTzZo167nnnissLBwwYMC9994rIs8+++z+/fsvXrwYHR39/PPPDxo0qHXr1rm5uWFhYQ0aNBCR1q1bDxs2bODAgYqiREZGDh8+vOKQbrpYjBISAIfavXv3d999t27duuTk5B49evTr16958+bODqqmkQQyAAA1TClv9woAgDtLTlamTZP77pPsbPWhh+SJJ6zNER/r7CkPWa8xm8233377wIED33rrLREpKCjo0KFD9+7d33vvvbNnz7700ku//PKLj4/PiBEjnnzySUd/QYC2dIOzLcuDnR1FKVeLp2bk5uYmJSXNmzdv3LhxT/zxY6qy7Pmx5spIgiYZkFqeBACoAcweAgAPpT78sEyaJCLKgAFqdLS0bFmFTurWrXvw4MGioiK9Xv/dd981a9as5FRCQkKHDh2ysrL69+9///33szoAgP2Kioq2bdu2du3a9PT0+Pj4bt26OTsiJyAJZAAAahLlIQBwUUaj8bnnnrNtef/99w0Gg+YDqffcI4cPV608pCjKAw88sG3btgcffHDdunV9+/Y9cuSIiDRu3Lhx48YiUr9+/VtvvfXcuXOUhwDY6aWXXkpLS4uOjh45cuQdd9xxw2sqtcq1Uhe7yAQTJybBXTNQqetdJAkAUJNYXAYAHik5WfbuvTp76JFH1HfesZaHKjX33mw233fffUuWLPnXv/41c+bMJ598cvTo0f/+979tHytz4sSJoUOHfvvttwEBAY74OgAHcbXFXK4Wj0NFRETUrVtXUZQy7fv373dKPE5BEsgAANQwZg8BgIdSkpIkM1OMRvWxx6o2dcjqjjvuSE9PT0pK6tGjR5lTOTk5Y8aMmTVrFrUhAPY7fPiws0NwPpJABgCghlEeAgCPFBurxsZq1Vm3bt3mzZv31VdfHT16tKSxsLBw9OjRw4YN69q1q1YDAfAE3t58QCUJZAAAaho/dgEA1TVo0KBbbrmlefPmJeWh4uLi559/vkuXLn/+85+dGxsAAACAm6I8BAAQEUmO0InIhyLJc3QiEpteiZ3pmjZtWuZhw3v27ElOTv7vf/+bmJgoItOmTevZs6em8QLwFJXdftgRnLtRsStkQEiCszMAAI7G1tQAAJE/ykMlKlUeAtyPq20F7WrxOFGldtB32SGqo2bCIwkungEA0Jzzy/AAAAAAAABwIspDAIBSPe/JcnYIAAAAAGoa5SEAAAAAAACPRnkIAAAAAADAo/HkMgCASMle1IOz2ZQaAAAA8DSUhwAAAOC2kiN09le9S56eXnLgHs+usj8Jts+Ptx67RwakSklws7cBAFSMxWUAAABwZ8kRVfzE64FFAXf9kqv8HhD3zQkAlEF5CAAAAO6pskUBtywEWJNQtfqImyXEziS47Ff96Lzcuk9eyslXrz8VO/NK/ZGXCotUEdly0Nx3dm7T0Tl1njA2ezan16zc978tLLmy4rMAPBmLywAAAErpBmeXHFiWBzs3GHG9eBzh+l/aNd8ErVJLzKzKqxFUHG3J90tEKvX9qoEk2Cn9LxbbJWbXq2ao5aXIcRlwxNQhB70NKjaim8+a1KIVO01PP+hr2/7r75bvD5qf7enrq1eW7zTFz8+7u6XXy4/6hgYpGVnqzqPFn241PdfLV0QqPgvAw1EeAgAAuMr2lzpxgYqMq8VTu1R5vkzFxZEKuOD3yzYJla2ROWISjdNTZGcSnPg2KPmWXR9n37v0jQy6xVuLypSHPt1qUlUZ0d1HRN7+d2GTEN32GXX99Ir17Lg4sc4quulZAB6O8hAAAEC5yvym53SuFo827skqOdy4r75cu0FyNfW8J8vaZ2WLI+XF8OEf3ZY2lf9NqcT3648OrdFWEEAVlCTBTtbiSMUZENskVONtWZoix7wNSqotlU2CVU2/DeRqHm4YqreXDI3xmftNwdGzxW0ae1kbVVWWbDPd2dzr7pZeIpJ9RQ0L1pVUf6x8/3hZ8VkAHk6xWFx0bS0AoOa5wt+6ASe6/rc4l5o9JM6Ox0E0W1V0+rT8+KN07qzMm6fGxUnXruKAH2sVRFud71ctSkJ1Qq0gRQ7NgNRgEqr5n20Fs4dE5MiZ4rYvXH75Ub9ZQ/ysLVvTzN1fu/Lu8Dpj+/iKyIiFeZ9uNb38qN+TMfrbwrzK3F7xWQAejq2pAQAA4A6UMWPk9Gll8GD14YeV+fOdHY5zkITanoHYdIv13w3P3hbm1bmN95JtJssfC8I+3Wry8ZbHH/Cxvpw7tE6vO/WzVxW0feFyg6cu/c+8XNuLKz4LwMNRHgIAALiqzB/5nT5Vx9XicYITJ2T9ejlxwq6Lw8MlIUHatZMuXSQsTIPRrbPsCwtl3Tq5ePHmlzvo++XEJFQyAzfvr2op4m1gY0Q3fUaWZdNPRSKSW6iu3FU04D6f+vWuLhBrUE9ZPzng0Dv1Foys0+8e/a5jxcPez+vzRm6x5eZnAXg4FpcBAEqxuAyw4r8Fl5CYqKxcqd59t7Jvn/rnP8sTT1R8uRIdrT78sLJ2rRoXpyQlqTt2SPW+lcozz6iffKJMmCB+fnLsmLpihZ03avn+cWoSqpyBilUuHi0yUOlBbTt0hbeBjcv5ationIfv1S8b6794i2nkB3nrXg7o3V5/w4tNZhn9Sd7iLaZlY/2HRPtU6iwAT8PW1AAAAHBFSnKyunq1iKgiyrBh6s3qAuprr4mIeu+9Jf9bXX5+IiKXLqlvv62MG6dBh5Xn5CSQAXGJJNiqV0d5rJN++U6TMbfO4i2mpvV1Pe+8cW1IRHy8ZUxv38VbTD+fvsGcgIrPAvA0lIcAAADgkgyG0uNgO2ZhxMZqHMCZM/LZZ9K0qYiIyaRx53ZybhLIgLhGEq41orvPp1tNs1cXbj9snvyon87myWNpGcWRTa/Zc3rfcbOI3BKk3PQsAA9HeQgAAOCq0qcR3ZNlPa7is5OgidRUefPN0uMap77+umzYoE6YICJqz541H4CIk5NABsRFknCtmLberRvr5iUViMjwbtcsChswJzfIXxnYUd+6sc5kltRfij/aVNgkRGfdu7riswA8HOUhAAAAuCLrKqGrx5qsEqqstm2lbdurx4884oQAnJ4EMiAukYTrDe/qM+WLgq6R3q1Cr3nW0FuP11mdWvTp1qLfLlpMZrVZA93IHr6TH/W17l1d8VkAHo7yEAAAAFyS5quEaiOSQAZu5OVH/V5+1O/69v/pqP+fjuVuRVTxWQAejvIQAAAAaocrV658+eWXoaGhffv2TUxMPHDgQIsWLYYPHx4QEODs0GoIGRCSAACOwYPtAQCleJg3PFzp3kN/YO8hlzJq1KjAwMC8vDyLxaLX62NjY1NSUvLz8xcsWFDeLU75sea4QauQAYfGUzXVjKe2JMHV0g4AFWP2EAAAAGqHkydPfvvtt8XFxZ07d965c6e3t/fDDz8cW73FRzt2LIqOfuqGp44d237q1L4mTdrdfvuD1RlCQ47IgJCE2pYBAHCEsn8iAwAA8Fix6Rbrv9ETrx47OyKUdfny5QsXLuTn51+4cEFEjEZjNTtMSppu+3LatNutB1u2LFyy5Gmj8bfly8du3DivmqNoSPMMCEmohRkAAM0xewgAAKB8JpPo9XLkiFy5Ik2bSqNGzg7Iow0bNqxHjx6qqk6dOnXMmDFBQUFpaWkjRoyw8/YZM9pd35iTc872ZWFhrvVg69b3x43bFBLS7KGHJsyZE92z54vVDF4T1cyAkAS3yAAAOALlIQAAgHIp48er8+crr7wirVvL+fPqokXOjsijxcfHx8XFqapqMBj69euXmpoaFhbWunVrO2/PyTmXkLDW3/+a7WDmzYu54cXFxUUhIc1EJDCwkdlcWM3ItVLNDAhJcIsMAIAjUB4CAAAon04nOp3arZskJCjjxzs7GkhQUNA///nPfv36NWrUqGvXrpW6Nyqql8mU16LFfbaNrVp1tn1pNhdOnNhYRCyW4osXT4WENLt8+byvb93qR66V6mRASIK7ZAAANEd5CAAAoHwFBSIiCQkiIleuODcWWOXl5Q0fPtxgMMTFxfXt27d+/fp23jhixJLrG0eN+sr25bx558tcoNN5jx79ddVCdZAqZ0BIghtlAAC0xdbUAAAA5WvQQObOle3bZe5cadjQ2dFARGTs2LEbNmyYNm3a+fPnhwwZMmzYsMr2kJa2UUQOHvzWnosDAkKOH/+h0lE6UvUzICSh9mcAALRFeQgAAKBc6qxZEhamrF0rYWHq669X6t7U1NT/+7//27lzp4Ni83AhISENGjQwGAznz5ed6HFTS5eOEpElS5628/oyj7VyEdXJgJAEd8kAAGiFxWUAAADlUxR5/HHV7ssfeuihTZs2iUhiYuLixYtjY2OXL18+cODAZ555xnExepolS5asX78+Kyurd+/eb7zxRqU2Zr4pex5r5XQOzYC4bxJ0g7Ovbfhx9uBskZ/mlG0vj/1XAkDtQ3kIAABAM3l5edaDxMTEzz77LCws7Kmnnho0aBDlIQ1lZmZOmTIlKirKEZ1X6rFWzuLQDIibJsGyPLhMy5QpLWfNOjFpUvibb54uc+rFF2+5YQbmzDlT5YABwMVRHgIAANBeUVFRWFiYiDRs2NBkMjk7HLfyt7/9zfblihUrBg0apFXn9jzWyukcmgEhCbUkAwCgLfYeAgAA0IzJZOrUqVOnTp1ycnLOnDkjIllZWf7+/s6Oy5299957GvY2YsSSNm3KPii9zGOtXI22GRCSUDszAADVxOwhAAAAzaSmppZp8fLy+uCDD5wSjPvp06fP9Y0XLlyobD9+foEiUqdOkD0Xm82FeXnZgYGNKjuKI2iVASEJtTkDAOAIlIcAAAAcyGAwGAwGZ0fhJi5cuLBo0aKgoGt+nx8yZEhl+5k69YCITJv2sz0XHzz47eLFw955xyX2JNYqA0ISanMGAMARKA8BAABo5vnnn79hu+bLfzxTTExMfn7+n/70J9vGu+66y87bv/giYciQf+zZs6xDh3j7B73zzv6uUxSoZgaEJLhFBgDAESgPAQAAaGbLli3h4eFxcXERERHOjsUNvf3229c3Lly40M7bjxz5vqDgckrKJxXXBdLTUw4cWGM0/iYiBkOT9u0fbdXq/ipE6wjVzICQBLfIAAA4gmKxWJwdAwDAVegGZ1//6F/AA0V8rEv/S1U+IxUUFHz33Xfr1q07e/Zsjx49+vXr17x5c83D82R79+5NTk7OzMwUkUaNGvXs2fPuu++u4HrbH2sbNry5fftHRuOZgIAQ22vmzDlbcrxq1ctHj27p0CE+ODhcVS3Z2Rm7dydGRvYcMOB1+4N06M/SymZAnJQEO+OpmiokoYQrZAAAXBDlIQBAKcpDgFWVy0MlcnNzk5KS5s2bN27cuCeeeEKrwDzc3Llzd+/e3b9//8aNG1sslszMzNWrV3fp0mX8+PHl3aIb7JwFQQ76WVqFDIjzklCB6uSnakkoY/nysYMHzy/v7JQpLWfOPKbTla60MJtNU6e2nj371yqHDQAujvIQAKAU5SHAqjrloaKiom3btq1duzY9Pb1bt26DBg1q2rSptuF5rK5du27evNnbu/SX9qKioh49emzfvt3+ToqKCv7zn9VZWSctFrO1pW/fV0rOvvrqbaNHfxUWdkdJy+nT//nkk8EzZhypdvga0CQDQhJqeQYAwBHYewgAAEAzL730UlpaWnR09MiRI++4446b34DK0Ov1x48fb9OmTUnLsWPHfH19K9XJRx8NbNgwIjT0Np1Od/3Z+PiFCxcOCAiobzA0ERGjMSM3N3vo0E+qGblWNMmAkIRangEAcARmDwEASjF7CG4s4uMb/BKoCdt5RhEREXXr1lUUpcw1+/fvd9DoHmXnzp1TpkwxGAyhoaEikpmZeenSpdmzZ3fq1Mn+Tj744NG//nVVBReoqiUj40B2doaIEhzcpGnT9td/Q51FkwwISajlGQAAR6A8BAAoRXkIqCaz2XzDdtuFMKgOi8Vy6NChzMxMRVFCQ0MjIyNLfmk3Go0Gg+GmPSxf/nxs7Av167dwbKAOU/0MCEmo/RkAAM1RHgIAlKI8BKD2evzxx5cuXXrTy6ZNa5uVdaJhwwgvL7215ZVX3GRul50ZEJLg1hkAgKrhD1kAAADwIBMmfF/B2V9+2dGyZSedzqvG4nEKkkAGAKAMykMAAMDdOG6bIftV+cFncLTAwEYVnN29O/HzzxNCQ9tERvaKiuptMITVWGA1iSSQAQAog/IQAABwN2VKM9V5Sr2damAI1Iz4+A9E5OzZQwcPrv/ss5F5ecbbbuseFdWrVavoklVIbo8kkAEAHojyEAAAAHCNxo3bNm7cNjZ2vMmUd+TI9z/++NWXX06YMmWfs+OqUSSBDADwKGxNDQAoxdbUcEvMHnIz77zzzgsvvFDyctasWVOmTJHKPLertiMDQhIAQGvOX5kPAAAA2G/v3r22L1NSUqwHnlMUIANCEgBAaywuAwAAQO2QmJi4dOnSjIyMPn36WFuuXLkSExPj3KhqEhkQkgAAjsHiMgBAKRaXwS2xuMxt5OfnFxQULFiwYMyYMdaWgIAAHx8fBw137Nj2U6f2NWnSYvkj3gAAIABJREFU7vbbH3TQEJVVwxkQkuCSGQAAR2BxGQAAAGqHOnXqBAcHT5o0KSkpadGiRcHBwZmZmbt379ZwiGnTbrcebNmycMmSp43G35YvH7tx4zwNh6iOGsiAkASXzwAAOALlIQAA4J4iPtZZ/5Uc239vcgSfkVzXpEmTjEbjDz/8ICJBQUGzZs3SsPPCwlzrwdat748bt2ngwLkvvLB527YPNByi+hyaASEJtSQDAKAtPvoAAAD3VOXVXtbaEBUil5Wenj527Fg/Pz8RCQoKMplMjhiluLgoJKSZiAQGNjKbCx0xRJXVTAaEJLh2BgBAW2xNDQAAap/razex6TcpBtlZLXJEVagK0aICXl5eJbWAU6dOeXtr+YHWbC6cOLGxiFgsxRcvngoJaXb58nlf37oaDlF9Ds2AkIRakgEA0BZbUwMASrE1NWoL+wsuJWvKqlYesrOOU/HW1JSHtLV27dply5ZlZGTExMQkJyfPnDkzNjbWccPl5l7Mycls3DjScUNUVg1nQEiCS2YAALRFeQgAUIryEFyQbnB2xRds3FdfREZPrOiaytaGet6TZe3W/vJQBWc/nCMiEnvcnp5qXO38KHj69Ok9e/aoqtqxY8fw8HCHjmU2F+blZQcGNnLoKJVVkxkQkuCqGQAADVEeAgCUojwEF3TDt6Wj5+OUDnr6tPz4o3TurMybp8bFSdeuVejNdWcP6XS1qzw0ffr06dOnf/PNN/3796+xQQ8c+Gbx4mHvvHOTMmXNcEoGhCS4WAYAwBHYcxEAAKBcypgxcvq0Mniw+vDDyvz5zg7H0+3atSs3N3f58uU1Oeidd/Z3naKAUzIgJMHFMgAAjsDW1AAAwI1YLKLTSWGhbN4snTpJSEh1OwwPl4QEOXpUunSRFSvsuuXECTl8WG6/XVq2rO7ouNYjjzzSt2/fc+fOderUybZ9165dGo6Snp5y4MAao/E3ETEYmrRv/2irVvdr2H911EwGhCS4dgYAwBFYXAYAKMXiMrigSr0tlWeeUT/5RJkwQfz85Ngx1c6CTvmDKtHR6sMPK2vXqnFxSlKSumPHTe5MTFRWrlTvvlvZt0/985/liSeqFkANqW2Ly6xmzJjx6quvOqjzVatePnp0S4cO8cHB4apqyc7O2L07MTKy54ABrztoxCpwaAaEJNSSDACAtigPAQBKUR6CC6pceWjMGHXBAuXpp9V//lMZN059993qDpqcfM2Jmz0aSRk+XF28+OrxsGHqp59WLYAaUjvLQ4WFhZs2bcrIyDCbzdaWhIQErTqfMqXlzJnHdLrSKfZms2nq1NazZ/+q1RDV59AMCEmoJRkAAG2xuAwAALiRM2fks8+kaVMREZNJgw4r+6hsg6H0OJhiq0M8++yzzZs3v/XWW3U67bfR9PLyycw8HBZ2R0nL2bNper2f5gNVh0MzICShlmQAALRFeQgAALgP9fXXZcMGdcIEEVF79nRCBKmp8uabpcdwAL1e77hVRfHxCxcuHBAQUN9gaCIiRmNGbm720KGfOGi4qnFoBoQk1JIMAIC2KA8BAAA30rattG179fiRR2p+fPW110qP77235gPwBGFhYRkZGU2tc8S0dvvtD86ceSwj40B2doaIEhzcpGnT9oqiOGKsKnNoBoQk1JIMAIC22HsIAFCKvYfggpzytvSU/xZq595DPXv2PH36dPPmzfV6vbUlKSnJuSHVMDIgJAEAtMbsIQAAgEq7cuXKl19+GRoa2rdv38TExAMHDrRo0WL48OEBAQHODs39LV261NkhOBkZEJIAAFpj9hAAoJSnzJhAreKas4dGjRoVGBiYl5dnsVj0en1sbGxKSkp+fv6CBQtqLEgN1M7ZQwAAQHMOedgBAACAKzh2bPvmze8ePrzZnot37Fhkf88nT56cO3fu/Pnz9+3b9/e//71///5vvfVWWlpaVSOFazlz5mfbl4cPf+esSJyIJJABAB6F8hAAAHAr06bdbj3YsmXhkiVPG42/LV8+duPGeTe9MSlpeqUGunz58oULF/Lz8y9cuCAiRqOx8sHCRX388aD162dbLMWFhblffDFm9erJzo7ICUgCGQDgUdh7CAAAuJXCwlzrwdat748btykkpNlDD02YMye6Z88XS66ZMaPd9Tfm5Jyzf5Rhw4b16NFDVdWpU6eOGTMmKCgoLS1txIgR1QweLuLll/d8/fVLc+c+UFCQc9998RMn7nB2RE5AEsgAAI9CeQgAALin4uKikJBmIhIY2MhsLrQ9lZNzLiFhrb//NbsLzZsXY3/n8fHxcXFxqqoaDIZ+/fqlpqaGhYW1bt1ak8jhdDqdt4+Pf1FRflFRYYMGLXU6L2dH5AQkgQwA8CgsLgMAAG7FbC6cOLHxxImN8/KMFy+eEpHLl8/7+ta1vSYqqpfJlHfLLRG2/1q16lypgYKCglauXJmZmenv79+1a1dqQ+7kzTc76vV+L7+c+re/bU9N/fyjjx5zdkROQBLIAACPwpPLAACleHIZXFD135a5uRdzcjIbN47UfND58+evW7fOYDDExcX17du3fv361QjTGXhyWTlOnkxt0eK+kpc7dvwrOnqkE+NxCpJABgB4FMpDAIBSlIfggjR5W+7YsSg6+qnr29PSNkZG9jx48NuoqF5VHvTQoUPr1q3bsGFDWFjYp59+Ws1QaxTlIQAAICIsLgMAAJ6gvKeSLV06SkSWLHm6Op2HhIQ0aNDAYDCcP3++Ov0AAAA4C1tTAwAAt1L9p5LZb8mSJevXr8/Kyurdu/cbb7zB9kMAAKCWojwEAADcSvWfSma/zMzMKVOmREVFOaJzuI7yFid6FJJABgC4NxaXAQAAt6LJU8ns9Le//c22NrRixQpHjAKnK29xokchCWQAgHtj9hAAAHArI0Ysub5x1KivamDo9957b9CgQTUwEBynJhcnuiySQAYAeCDKQwAAwM2ZzYV5edmBgY2uP+XnFygideoEVbbPPn36XN944cKFKoQHl1KTixNdFkkgAwA8EOUhAADg5g4e/Hbx4mHvvJN9/ampUw+IyLRpP1e2zwsXLixatCgo6Jq60pAhQ6ocJFyEdXFiixb32TY6aHGiyyIJZACAB1IsFouzYwAAuArd4GzL8uCbXwfUIEe8Lb/4ImHIkH/s2bOsQ4d4+wd9dF7upp/MZz4KDKyjTJgwYdCgQR07drSeip15Zf+J4sd8X/nogwVbDprnfFP406/FWVcsDQN1bZt49b/X+7levtYrKz5b03Q64aMgAABg9hAAAHA/6ekpBw6sMRp/ExGDoUn79o+2anW/7QVHjnxfUHA5JeWT8spDNzSim8+a1KIVO01PP+j79ttvl7T/+rvl+4PmZ3v6Lhi5YPlOU/z8vLtber38qG9okJKRpe48WvzpVpO1AFTxWQAAAGdh9hAAoBSzh+CCKvu2XLXq5aNHt3ToEB8cHK6qluzsjN27EyMjew4Y8HrJNRs2vLl9+0dG45mAgBDbe+fMOZscoRORnvdkbdxXPzb9mo9J5mJp9mzOraG6lBl1RWTv3r3JycmZmZl7rnTbdblb4vDf4vtEdZh8OdOoHn2vnp9eKbmxsEj11SsiUvFZJ2D2EAAAEBFmDwEAADezd+8XM2ce0+lKP+TExIyeOrW1bXmod+9JvXtPWr587ODB86/vITbdIoNvsFGRt5cMjfGZ+03B0bPFaxL/vnv37v79+9999z1frmgXXu/Slx+/knmoS/aVp8OCdX7XlntKqj/ZV9QKzgIAADgL5SEAAOBWvLx8MjMPh4XdUdJy9myaXu93/ZX/8z9zUlO/yMo6abGYrS19+74iIskRuo3ldD6yu37uNwWfbi1K+fe/N2/e7O3tvTXNfPbylXeHB/81dkWPHj0e+N/Rn241Tfmi4MkY/W1hXmVuf+B27wrOAgAAOAvlIQAA4Fbi4xcuXDggIKC+wdBERIzGjNzc7KFDP7n+yo8+GtiwYURo6G06na6kscyCsjJuC/Pq3MZ7yTZTa73P8ePH27Rp8+lWk4+3PP6Az7Fjh3x9fecOrZNpVGevKpi9qiCkrhLT1vvRDvrHu/joFBGRis8CAAA4C3sPAQBKsfcQXFAV3paqasnIOJCdnSGiBAc3adq0vaLcoADzwQeP/vWvqyobzz83F/7l4/y3H/n1m4/H1QsO/dZnfrj+yB2X37506dLs2bM7deokIkfOFCf/15z6S/HGA+ZMo+WhP+nXvRzg9UcNquKzNYq9hwAAgIgwewgAALgfRdGFh98VHn5XxZeFhDTLyjpZv36LSnU++H6fFz4tSP299ebNm9/84tS/1/g8E1un372zIiMjS4pQof6Xn+tlEBGTWUZ/krd4i+nLH0xDon2sZ28L87KuLLvhWQAAgJpHeQgAAHiotLSN27d/1LBhhJeX3tryyiv7b3pXvTrKY530y3eacvLrbDzaoGl9y9+evLfM6rDnnntu6dKlIuLjLWN6+y7eYvr59A0m6VR8FgAAoMZQHgIAAG7ll192tGzZSae7+cbPEyZ8X7UhRnT3+XSrafbqwu2HzZMf9bOtDaVlFEc2vWbofcfNInJLkHLTswAAAM5CeQgAALiV3bsTP/88ITS0TWRkr6io3gZDWHlXBgY2qtoQMW29WzfWzUsqEJHh3a5ZFDZgTm6Qv1Js6bVyl8lkltRfij/aVNgkRPf4Az4lZwd21LdurLv+LAAAgLOwNTUAoBRbU8MFVe1tefbsoYMH16elbczLM952W/eoqF6tWkWXLCKrvtmrCqZ8UdA10vv7aXVt27/eXbQ6tWjN9gyLb6jJrDZroOvVXj/5Ud+wYF3J2T3pxb9dtFx/1gnYmhoAAIgI5SEAgC3KQ3BB1Xxbmkx5R458f/Dghl9+2Tllyj4NA6vA448/bt17yNVRHgIAACIi4qQ/VQEAANQIHx//du3ihgxZ4Ija0DvvvGP7ctasWdaD999/X/OxAAAAHIfyEAAAQBXt3bvX9mVKSor1wGAwOCMcAACAKmJragAAgEpLTExcunRpRkZGnz59rC1XrlyJiYlxblQAAABVQ3kIAAC4m/T0lAMH1hiNv4mIwdCkfftHW7W6X9shBg4cGBcXt2DBgjFjxlhbAgICfHx4ABkAAKiV2JoaAFCKranhgir7tly16uWjR7d06BAfHByuqpbs7IzduxMjI3sOGPC65rGZTKYvvvji/PnzL7744qlTp86ePduxY0fNR3EgtqYGAAAiwuwhAADgZvbu/WLmzGM6XemHnJiY0VOntnZEeWjSpEktWrT44YcfRCQoKCghIeGbb77RfBQAAABHY2tqAADgVry8fDIzD9u2nD2bptf7OWKs9PT0sWPH+vn5iUhQUJDJZHLEKAAAAI7G7CEAAOBW4uMXLlw4ICCgvsHQRESMxozc3OyhQz9xxFheXl4lJaFTp055e/PJCgAA1ErsPQQAKMXeQ3BBVXhbqqolI+NAdnaGiBIc3KRp0/aKojgitrVr1y5btiwjIyMmJiY5OXnmzJmxsbGOGMhR2HsIAACICOUhAIAtykNwQZV9W6qqmpb2rYhERvY6cWL3zz+vDQ29vUOHeAdViE6fPr1nzx5VVTt27BgeHu6IIRyI8hAAABARFpcBAAA3s3Ll+JMnUy2W4v37v75w4Xjbtg9t3bowM/OQtltTT58+ffr06d98803//v1rX1UIAADgWmxNDQAA3Mr+/ateeOG7ceOSd+9OHDXqq169XkpIWLtnz1JtR9m1a1dubu7y5cu17RYAAMApmD0EAADciqLovL19vL19GjS4tU6dIBHx9zcUFxdpO8ojjzzSt2/fc+fOderUybZ9165d2g4EAABQAygPAQAAt1KvXsPLl8/Xq3fLtGk/W1uysn6tV+8WbUcZPXr06NGjZ8yY8eqrr2rbMwAAQM1ja2oAQCm2poYLqvzW1BZFuWb5fE7Oufz8S6GhbbQOTQoLCzdt2pSRkWE2m60tCQkJmo/iQGxNDQAARITZQwAAwM2UqQ2JSGBgaGBgqCPGevbZZ5s3b37rrbfqdOznCAAAajHKQwAAAFWk1+tZXAYAANwAf+kCAACoorCwsIyMDGdHAQAAUF3MHgIAAG7ozJmfw8LuKHl5+PB3t9/eQ/NRUlJSPv/88+bNm+v1emtLUlKS5qMAAAA4GuUhAADghj7+eFDHjkN79ZpYVFSwatWkkydTJ03S/pHzS5cu1bxPAACAmseTywAApXhyGVxQ1d6WhYVXvv76pVOnfiwoyLnvvvjevSfpdF6OCK9248llAABARNh7CAAAuCWdztvHx7+oKL+oqLBBg5bUhgAAACpAeQgAALihN9/sqNf7vfxy6t/+tj019fOPPnrM2REBAAC4LvYeAgAAbmjo0H+2aHGfiAQFNX7uuaQdO/7l7IgAAABcF7OHAACAG7LWhkpER490ViQAAACuj/IQAAAAAACAR6M8BAAAAAAA4NEoDwEAAPe3Y8ciZ4cAAADguigPAQAA95eUNN3ZIQAAALgunlwGAADcyowZ7a5vzMk5V/ORAAAA1BaUhwAAgFvJyTmXkLDW3z/YtnHevBhnxQMAAOD6KA8BAAC3EhXVy2TKK/Ng+1atOjsrHgAAANenWCwWZ8cAAHAVusHZluXBN78OqEG8LR1IpxM+CgIAAGYPAaiU5Ihy97OPTecXDACAW9OV/1AXqmwAgFqOJ5cBnu7dtYW6wcaCItWeiyuoAVVQOQIAwB1Ya0AWyw3+VVA5qoKUFOW11yg5AQBqEr/OAZ6uQaASFe6lU5Tqd0WFCACOHdu+efO7hw9vdnYgcLDr60EaVohSUoTyEACgZvG7HODpnuji89959XzsXmla8SIyKkS1l25wtm5wtvXA2bEApUrelq78zpw27XbrwZYtC5csedpo/G358rEbN85zblQ3odNdLWdoO+3F7ZVMFCpTu7G+JJkAgFqL/w8DPF2ZxWWvrSzQ/6/xwK/FPV/Prfvkpaajc8b+X36+6ZqlZ/ZvM5QcobP+0zhoaK3ML96u/Hs4PEpteWcWFuZaD7ZufX/cuE0DB8594YXN27Z94NyoKlKmikFR44asFTT7k3P9ZJ+UFCU2VqlXTwkIUB54QDZsKDmj/PWvSni47bXK1KlKvXoiorzwgjJ5sogoPj6KTqfodHLhQjW+DAAA7MLW1ADKsqjyxIK8N/7X77OEOqm/FD8+P89Pr8x5ws/2mth0S3lFnzLtPe/JEhFx1V/qUB6X/T0ccGXFxUUhIc1EJDCwkdlc6OxwKoMKUQVuuI7shiu/rHOLrKe2b1diY6V9e/Vf/xK9Xpk/X+nXT/36a+nfv+LR1KlTFV9fmTNHPXZMvLxEREJCNPgqAACoEOUhAGWpqrwZ7xd3t15EHr5HNzTGZ8k2U5nykJ2PMEuO0G3cV194rpnLu74YxHPE4QpqS5nSbC6cOLGxiFgsxRcvngoJaXb58nlf37rOjqsy2ObmeiVVoTLJKa82dO0pZepUCQ5Wv/tOAgJERI2LUyIjlUmT1JuVhyQkRDUYFBFp3ly8+awOAKgh/F8OgBvoFlX6wyGikXLukqWgSPXTX92+2v7FYlSFAHiCefPOl2nR6bxHj/7aKcFAM5UtmdlOMjKZZOdOeeopa21IRESvl/h4mTlTMjOlUSPNggQAQCNMJAZQlpdOAnxLH2Sm91JEpMB09WXFtSHqQbVUmblCTB2Ci6i978yAgJDjx39wdhTlu+G2yrBHeVOHyuxXnZMjZrN6bRlIbdxYRCQry7ERAgBQJcweAqAZakO1Wi36xRsexbI8WDc4uza+P5OSpkdHP+XsKMpX8qQtakNasc1kYKB4eytnz9o+2UE5e1ZEpH59ERE/PzGbr7n90iXHhwgAQLkoDwGoBDu3HAIAjzJjRrvrG3NyztV8JHAs6xShG27jXabK5uMjDzwgq1bJvHlSt66ISFGRLFsmbdtaV5apzZopv/8uly5JUJCIiKrK9u2lt/v6iojk50u9eg75QgAAuA7lIQCVQA0IAK6Xk3MuIWGtv/81U5zmzYtxVjxwlMrMtFJnzlR69FC6d1cnTBC9XlmwQE6cUNesuXr6scdk8mTl+efVN96Q/Hzlrbfk119Lb27XTkSUt99W+/QRLy9p3549qgEAjsbeQwAAANUSFdXLZMq75ZYI23+tWnV2dlxwquho9fvvJShIeeYZ5cknxWxW162TuLirZ8PD1TVr5L//VSIilAcfVJs3l7/+tfTeBx+UF1+Ujz5S7r9f6dBBjEanfAUAAI+iWFhwDgAAXFgt3XuodmDvIQAAICIsLgMAAO7typUrX375ZWhoaN++fRMTEw8cONCiRYvhw4cHlDxx3AHM5sK8vOzAQJ5fDgAAagdmDwEAAJdWzdlDo0aNCgwMzMvLs1gser0+NjY2JSUlPz9/wYIFGgZZxoED3yxePOydd7IdN4Q2mD0EAABEhPIQAABwcdUsD/Xq1evbb78tLi7u3Lnzzp07vb29VVWNjY3dvHmzhkHWVpSHAACAiLC4DAAAuL3Lly/n5eXl5+dfuHChUaNGRgds9JuennLgwBqj8TcRMRiatG//aKtW92s+CgAAgINQHgIAAO5s2LBhPXr0UFV16tSpY8aMCQoKSktLGzFihIZDrFr18tGjWzp0iG/VKlpVLdnZGStWjIuM7DlgwOsajgIAAOA4LC4DAAAurfpPLrt06ZKqqgaDIS8vLzU1NSwsrHXr1lqFJyJTprScOfOYTlf6Vzez2TR1auvZs3/VcBSHYHEZAAAQERGdswMAAABwrKCgoJUrV2ZmZvr7+3ft2lXb2pCIeHn5ZGYetm05ezZNr/fTdhQAAADHYXEZAABwf3l5ecOHDzcYDHFxcX379q1fv76GncfHL1y4cEBAQH2DoYmIGI0ZubnZQ4d+ouEQAAAADsXiMgAA4NKqv7isxKFDh9atW7dhw4awsLBPP/1Ukz6tVNWSkXEgOztDRAkObtK0aXtFUTTs31FYXAYAAESE2UMAAMBzhISENGjQwGAwnD9/XtueFUUXHn5XePhd2nYLAABQMygPAQAA97dkyZL169dnZWX17t37jTfe0Hz7IQAAgFqN8hAAAHB/mZmZU6ZMiYqKckTnv/yyo2XLTjqdlyM6BwAAqAHsPQQAAFyahnsPlVixYsWgQYO06m3Zsr8eP74rNLRNZGSvqKjeBkOYVj07HHsPAQAAEaE8BAAAXJwjykPR0dE7duzQts+zZw8dPLg+LW1jXp7xttu6R0X1atUq2stLr+0oGqM8BAAARITyEAAAcHHVLA/16dPn+sbjx48fOXKkGkFVxGTKO3Lk+4MHN/zyy84pU/Y5aBRtUB4CAAAiwt5DAADAvV24cGHRokVBQUG2jUOGDHHciD4+/u3axbVrF+e4IQAAALRFeQgAALizmJiY/Pz8P/3pT7aNd93FE+gBAABKsbgMAAC4NEfsPYSrWFwGAABEhNlDAADA7e3duzc5OTkzM1NEGjVq1LNnz7vvvlvbIdLTUw4cWGM0/iYiBkOT9u0fbdXqfm2HAAAAcBxmDwEAAJdWzdlDc+fO3b17d//+/Rs3bmyxWDIzM1evXt2lS5fx48drFeGqVS8fPbqlQ4f44OBwVbVkZ2fs3p0YGdlzwIDXtRrCUZg9BAAARITyEAAAcHHVLA917dp18+bN3t6lM6aLiop69Oixfft2LaITEZkypeXMmcd0utIhzGbT1KmtZ8/+VashHIXyEAAAEBERnbMDAAAAcCC9Xn/8+HHblmPHjvn6+mo4hJeXT2bmYduWs2fT9Ho/DYcAAABwKPYeAgAA7mzGjBmjRo0yGAyhoaEikpmZeenSpdmzZ2s4RHz8woULBwQE1DcYmoiI0ZiRm5s9dOgnGg4BAADgUCwuAwAALq36Ty6zWCyHDh3KzMxUFCU0NDQyMlJRFOspo9FoMBiqH6SqWjIyDmRnZ4gowcFNmjZtXzKES2NxGQAAEBEWlwEAALen0+mioqIefPDBHj16REVF2RZunnvuuSp0uGPHItuXqqqmpW3MyTnXrl2/unUb7N//9Z49y1RVrW7cAAAANYXFZQAAAJWTlDQ9OvqpkpcrV44/eTLVYinev//rCxeOt2370NatCzMzD9WCJ5cBAACICOUhAACACsyY0a7k+IvTb/xypcOLtw3IyTlne83+/at2+/20/4RlyOkWdw34tc8/VZFRsk/8vjQG19XdEe7V9y7vEd19AuuUzlpavMU08oM867GfXsq7DAAAoGZQHgIAAChXTs65hIS1/v7BItLyvz7DPvZt0H5l0c4O11xjbrIlzfJsT98Gp5vq9XVE8mYN8fvx+6fin1h8/pJl++Hil5bmv/3vwn+/FPCn5l62N84a4teumVdRsVR8GQAAgKOx9xAAAEC5oqJ6mUx5t9wSccstEf/brVkjg+6rHw2tWnW2veaoaYiqyojuPtOm/Xz1rkZZ7UMPPdpBP+oh38Qx/j+8Xu9yvjpgbm5h0TUbEnVu493vHv1NLwMAAHA0ykMAAMD9vfPOO7YvZ82aZT14//33y1yZHKEr+SciI0YsadOmq/WUt5cMjfHZecTcvf+KkutVVU5Yht3Z3OvulqVTfry9fZ5++ouSl3e19Hr1Md9ff7es3FVUQZB2XgYAAKA5ykMAAMD97d271/ZlSkqK9eCGT7WPTbf0vCerTGNa2kYRiQnfLSKfbi0t32w7ZP7lnGVEdx/bi/39g0ND29i29L/XR0S2Hy6uOE47LwMAANAW5SEAAODOEhMT+/Tp89NPP/X5Q5cuXe6+++4KbrHOGypj6dJRIrJ93ROd23gv2Way/LH869OtJh9vefwBn+tvsdW8gU5EzmZbNLkMAABAW2xNDQAA3NnAgQPj4uIWLFgwZswYa0tAQICPT7nVnNh0i4jI4OyrB9cZ0U3/l4/zN/1U1OtOfW6hunJX0YD7fOrXu8njxuzcTIg9hwAAgFNJB0avAAANtElEQVQwewgAALizOnXqBAcHT5o0KSkpadGiRcHBwZmZmbt3765yh4Pv9wnwVazry778oehKgTqim15Ezpz52fayw4e/s3356+8WEQkLuclHLzsvAwAA0BYfPgAAgPubNGmS0Wj84YcfRCQoKKhka+oqqFdHeayTfvUekzFXXbzF1LS+ruedehH5+ONB69fPVlVVRL77bv7q1ZNt71qTahKRmLY3eWK9nZcBAABoi/IQAABwf+np6WPHjvXz8xORoKAgk8lUnd5GdPcpKJLZqwu3HzYP6+qjU0REXn55j9GYsX79LBEJCAiZOHFHyfX7TxS//nVhy1t0AztWtEWRnZcBAABojr2HAACA+/Py8iopCZ06dcrbu9Ifgfz8AkWkTp0gEYlp6926sW5eUoGIDO92tZSj03n7+PgXFxeJyKnctuv2W8wWyzmjZfvh4pW7TI0MujUTA3yuHfaHo+YrBarZIhVfBgAA4GiKxcKjMQAAgOvSDc62LA+uZidr165dtmxZRkZGTExMcnLyzJkzY2NjqzPo7FUFU74o6Brp/f20utaWmTPvvPPO/ln1Jj/1YaG1xcdbQurq7gj36nuX91M9fOrVKd2+evEW08gP8m56mcPpdMJHQQAAQHkIAAC4OE3KQyJy+vTpPXv2qKrasWPH8PBwOwf94ouEIUP+sWfPsg4d4iu+5eTJ1BYt7it5uWPHv6KjR1Y/bMeiPAQAAESEvYcAAIB7mz59uoh888034eHhAwcOfOyxx25aG7J15Mj3BQWXU1I+uemVtrUhEakFtSEAAIA/sLQdAAC4s127duXm5i5fvrx///5VuL1jx6EzZ/7JaDwzcWJj2/Y5c85qFCAAAIDzsbgMAAC4tGouLvvwww8///zzc+fOGQwG2/Zdu3bZP+jy5WMHD55f5RhcF4vLAACAiFAeAgAALk6TvYdmzJjx6quvVnnQoqKC//xndVbWSYvFbG3p2/eVinvYsWNRdPRTVQi1RlEeAgAAIsLiMgAA4AkmTJgwf/78ffv2ich99903cuRIf39/+2//6KOBDRtGhIbeptPZu29jUtL0WlAeAgAAEBHKQwAAwBO8+OKL7du3nzJlSlFR0ddffz1+/PgPP/zQ/tu9vHwGD36vvLMzZrS7vjEn51xVAgUAAHAGykMAAMD9eXt7jxo1ynocFRXVu3fvSt0eEtIsK+tk/fotbng2J+dcQsJaf/9rVsDNmxdTpUgBAACcgPIQAABwf4GBgSdOnGjZsqWI7NmzJzIyslK3p6Vt3L79o4YNI7y89NaWV17ZX3I2KqqXyZRX5sH2rVp1rnbUAAAANYStqQEAgEvTZGvq2NjYU6dOhYeHm83m3377LSIiQq/Xi0hSUpI9g+bkZJa5IDCwUTVDcglsTQ0AAESE2UMAAMATfP7559W53U2KQQAAAOWgPAQAANxfw4YNnR0CAACA67L34awAAAAAAABwS5SHAAAANHXihKxfLydOODsOAAAAe1EeAgAAbsS60XJhoaxbJxcvOiGAxETlhRckNVUZN04SE50QAAAAQOVRHgIAAO5DGTVKRJTJk5UdO5TRo50QQHKyunq1vPqqumaNsmlTzQcAAABQBZSHAACAG/HzExG5dEmdNUvCwuy65fRpWbNGzp9XJk6UrVurG4DBUHocHFzd3gAAAGoETy4DAABu5MwZ+ewzadpURMRksucOZcwYNTZWefdddcYM5d131a5dqxVAaqq8+WbpMQAAQG1AeQgAANQ+yRFlZ0DHpltERH39ddmwQZ0wQUTUnj3t6is8XBIS5OhR6dJFVqyoZmDqa6+VHt97b8XRAgAAuAjKQwAAwI20bStt2149fuQRu2758Ud5803Zv1/efFN+/LG6AcTGVrcHAACAGkd5CAAAeDTrfB/rTJ+S+T4AAAAehfIQAABwdbrB2WWb7skqOdy4r76IRHxc0QM30v9S/mIuLeb7VDz6h9Zxjts06Xg8CAAAcCGKxcLSdwAAUMtUajefiI91FZWHyu/c/h2CKh6CvYcAAICL4y9XAAAApa4v5QAAALg9FpcBAIDap2Zm3yRH6DQZiLlCAADAxfH3MQAAgKuYOgQAADwTs4cAAACuYpoPAADwTPyJDAAAAAAAwKMxewgAALgn24fNW48r9fwyAAAAz8HsIQAA4J4oBgEAANiJ8hAAAPAIVIsAAADKQ3kIAAC4LUpCAAAA9qA8BAAA3B91IgAAgAooFguflgAAgFux3ZTaWShIAQCAWoTyEAAAAAAAgEdz/t/WAAAAAAAA4ETezg4AAACgug4ePNikSRODwZCXl/fxxx8fPny4TZs2f/nLX+rWrevs0AAAAGoBFpcBAIBar3v37mvXrvX39584caKXl1dsbOyOHTvOnz//j3/8o+Qax21IxDZDAACgtmP2EAAAqPXy8/Pr1KkjIj/99NO6det0Ot2DDz4YGxtre81NizjW+pHtZde3AAAAuCX2HgIAALVeu3btPvjgA7PZ3LZt2//85z8icvjwYT8/v8r2U6YSRGEIAAB4CBaXAQCAWu/ChQtTp0798ccfw8LCDh482LBhw/r168+cOfPOO++0s4eIj3XlFYMqOAUAAOAeWFwGAABqvQYNGnzwwQe///77yZMnLRZLo0aNmjdv7uygAAAAag3KQwAAwE00bNiwYcOGzo4CAACg9qE8BAAAar3nn3/+hu3vvfdeDUcCAABQG1EeAgAAtd6WLVvCw8Pj4uIiIiKq1kP6Xyw33GOIjYcAAIAnYGtqAABQ6xUUFHz33Xfr1q07e/Zsjx49+vXrV4W9h3iwPQAA8FiUhwAAgPvIzc1NSkqaN2/euHHjnnjiiSr0YC0JWVEYAgAAHoLyEAAAcAdFRUXbtm1bu3Ztenp6t27dBg0a1LRp0yr3xpoyAADgUdh7CAAA1HovvfRSWlpadHT0yJEj77jjDmeHAwAAUMswewgAANR6ERERdevWVRSlTPv+/fur2CGzhwAAgCdh9hAAAKj1Dh8+XPWbTSbR6+XIEblyRZo2lUaNtIsLAACgdtDd/BIAAADX5l0Oe+5Vxo8XVVVeeUX56itlyhRHhwoAAOCCKA8BAADPptOJTqd266bOni1BQc6OBgAAwAkoDwEAAM9WUCAikpAgInLlinNjAQAAcAr2HgIAAJ6tQQOZO1c6dZJdu6RhQ2dHAwAA4ATMHgIAAB5NnTVLwsKUtWslLEx9/XVnhwMAAOAEzB4CAACeTVHk8cdVZ0cBAADgRIrFYnF2DAAAAC4hOaLsxOrYdD4pAQAA98fiMgAAAAAAAI9GeQgAAKCsnvdkOTsEAACAmkN5CAAAAAAAwKNRHgIAAAAAAPBobE0NAABQlm5wtmV5sLOjAAAAqCHMHgIAAAAAAPBolIcAAAAAAAA8GuUhAAAAAAAAj0Z5CAAAAAAAwKNRHgIAAAAAAPBolIcAAAAAAAA8GuUhAAAAAAAAj0Z5CAAAAAAAwKNRHgIAAAAAAPBolIcAAAAAAAA8GuUhAAAAAAAAj0Z5CAAAAAAAwKNRHgIAANDAu2sLdYONBUWq9eVrKwv0/2ss7+KKzwIAANQwykMAAAAAAAAejfIQAABAqeQIXXKEznrg7FgAAABqCJ97AAAArhGbbqng7NGzxY/Pz2v8lxy/x43Nn80ZsTCvqPjmfaYcNjd46lL/Obl5hWpJ48HTxQ/OuFL3yUsNn7703KL8XJtTAAAANcnb2QEAAAC4luQI3cZyTv18uviBqVdC6irT/+zburHX2WzLmr3mIrOq91Iq6HDFD6Zh7+eN7O47f0Qdrz/+Nqeq8vBbuU8/6PPKQL896ebpXxac/N2ydlKAxl8MAACAHSgPAQAAlKp46tDExAJFkV2z6t4SdLXM83gXn4o7fDupYNKygteH+L00wM+23aLKc718JjzsJyLdo7x9vZXxn+WnHDY/cDsfzwAAQE1jcRkAAIBdiorlu5+LHuvkU1Ibuqmx/5f/yvKCJQn+ZWpDVkOifWyO9SKy5aBZk1ABAAAqhfIQAACAXXLyVJNZmtavaB2ZLYsqy1JMbZt49b1bf8MLQm3KTKFBOp0iF3PZfggAADgB5SEAAAC7BPorPt5y+kJFq89s6RT5flrds9nqQzNzs29U9zl3yWJ7bFElJMDe2hMAAICGKA8BAADYRe8lse30K3cV2ZZ1KtaumdfW1wLOGi09Xrvye07ZCtHS7aaS42UpJhHpFsXGQwAAwAkoDwEAANhr7lA/RZGOk68s/LZw009FidtNf/77Nc+qv16bxl7bXqt7uUDtNv3K2ezSupJOkQ83mWZ+VbDpp6JZXxdM/rygz1169qUGAABOQXkIAADAXm2beO1+o27nNt7Tvix4+K3cV74oCPRX9N43WRHWoqFu22t1VZGu06+c+mNtmqLIvycFbDlofmRu3jtrC0d2913xgr/jvwIAAIAbUCwWe2dHAwAAAAAAwP0wewgAAAAAAMCjUR4CAAAAAADwaJSHAAAAAAAAPBrlIQAAAAAAAI9GeQgAAAAAAMCjUR4CAAAAAADwaJSHAAAAAAAAPBrlIQAAAAAAAI9GeQgAAAAAAMCjUR4CAAAAAADwaJSHAAAAAAAAPBrlIQAAAAAAAI9GeQgAAAAAAMCjUR4CAAAAAADwaJSHAAAAAAAAPBrlIQAAAAAAAI9GeQgAAAAAAMCj/T8V8YKQ2H9EbAAAAABJRU5ErkJggg==;" vertex="1" parent="1">
          <mxGeometry x="-310" y="40" width="1546" height="738" as="geometry" />
        </mxCell>
        <mxCell id="lqA8_-Kd97wF1EIv1CP8-2" value="&lt;b&gt;&lt;font style=&quot;font-size: 20px; color: rgb(238, 0, 238);&quot;&gt;MnSW&lt;/font&gt;&lt;/b&gt;" style="text;strokeColor=none;align=center;fillColor=none;html=1;verticalAlign=middle;whiteSpace=wrap;rounded=0;" vertex="1" parent="1">
          <mxGeometry x="360" y="500" width="110" height="60" as="geometry" />
        </mxCell>
        <mxCell id="lqA8_-Kd97wF1EIv1CP8-3" value="&lt;b&gt;&lt;font style=&quot;font-size: 20px; color: rgb(238, 0, 238);&quot;&gt;MpSW&lt;/font&gt;&lt;/b&gt;" style="text;strokeColor=none;align=center;fillColor=none;html=1;verticalAlign=middle;whiteSpace=wrap;rounded=0;" vertex="1" parent="1">
          <mxGeometry x="350" y="680" width="110" height="60" as="geometry" />
        </mxCell>
      </root>
    </mxGraphModel>
  </diagram>
</mxfile>
